<?xml version="1.0" encoding="UTF-8" standalone="no"?>
<!DOCTYPE svg PUBLIC "-//W3C//DTD SVG 1.1//EN" "http://www.w3.org/Graphics/SVG/1.1/DTD/svg11.dtd">
<svg width="100%" height="100%" viewBox="0 0 100 100" version="1.1" xmlns="http://www.w3.org/2000/svg" xmlns:xlink="http://www.w3.org/1999/xlink" xml:space="preserve" xmlns:serif="http://www.serif.com/" style="fill-rule:evenodd;clip-rule:evenodd;stroke-linecap:round;stroke-linejoin:round;stroke-miterlimit:10;">
    <g>
        <circle cx="50" cy="50" r="47" style="fill:white;"/>
        <path d="M50,0C22.4,0 0,22.4 0,50C0,77.6 22.4,100 50,100C77.6,100 100,77.6 100,50C100,22.4 77.6,0 50,0ZM50,95C25.1,95 5,74.9 5,50C5,25.1 25.1,5 50,5C74.9,5 95,25.1 95,50C95,74.9 74.9,95 50,95Z" style="fill:rgb(189,226,232);fill-rule:nonzero;"/>
    </g>
    <g>
        <path d="M26.3,25.1L26.3,72.9L81.7,72.9" style="fill:none;fill-rule:nonzero;stroke:rgb(37,116,136);stroke-width:4px;"/>
        <path d="M26.5,30.2L30.3,30.2" style="fill:none;fill-rule:nonzero;stroke:rgb(37,116,136);stroke-width:4px;"/>
        <path d="M26.5,47L30.3,47" style="fill:none;fill-rule:nonzero;stroke:rgb(37,116,136);stroke-width:4px;"/>
        <path d="M26.5,63.8L30.3,63.8" style="fill:none;fill-rule:nonzero;stroke:rgb(37,116,136);stroke-width:4px;"/>
        <path d="M35.1,63.8L41.5,63.8L41.5,47L51.2,47L51.2,63.8L59.9,63.8L59.9,30.2L70.3,30.2L70.3,47L76,47" style="fill:none;fill-rule:nonzero;stroke:rgb(207,119,60);stroke-width:4px;"/>
    </g>
</svg>
