<?xml version="1.0" encoding="UTF-8" standalone="no"?>
<!DOCTYPE svg PUBLIC "-//W3C//DTD SVG 1.1//EN" "http://www.w3.org/Graphics/SVG/1.1/DTD/svg11.dtd">
<svg width="100%" height="100%" viewBox="0 0 100 100" version="1.1" xmlns="http://www.w3.org/2000/svg" xmlns:xlink="http://www.w3.org/1999/xlink" xml:space="preserve" xmlns:serif="http://www.serif.com/" style="fill-rule:evenodd;clip-rule:evenodd;stroke-linecap:round;stroke-linejoin:round;stroke-miterlimit:10;">
    <circle cx="50" cy="49.678" r="47.049" style="fill:white;"/>
    <path d="M50.001,0C22.386,0 0,22.386 0,50.001C0,77.614 22.386,100 50.001,100C77.613,100 100,77.614 100,50.001C100,22.386 77.613,0 50.001,0ZM50.002,95C25.146,95 5,74.854 5,50.001C5,25.148 25.146,5 50.002,5C74.854,5 95,25.148 95,50.001C95,74.854 74.854,95 50.002,95Z" style="fill:rgb(189,226,232);fill-rule:nonzero;"/>
    <g>
        <rect x="36.563" y="19.236" width="26.899" height="26.9" style="fill:none;stroke:rgb(37,116,136);stroke-width:4px;"/>
        <path d="M54.346,41.224L53.114,37.176L46.915,37.176L45.683,41.224L41.798,41.224L47.8,24.15L52.208,24.15L58.231,41.224L54.346,41.224ZM52.253,34.152C51.111,30.485 50.471,28.41 50.327,27.93C50.183,27.449 50.081,27.069 50.018,26.79C49.762,27.783 49.03,30.237 47.82,34.152L52.253,34.152Z" style="fill:rgb(207,119,60);fill-rule:nonzero;"/>
    </g>
    <g>
        <g>
            <rect x="19.517" y="48.33" width="26.9" height="26.9" style="fill:none;stroke:rgb(37,116,136);stroke-width:4px;"/>
            <path d="M26.663,53.277L31.955,53.277C34.367,53.277 36.117,53.621 37.207,54.306C38.296,54.994 38.841,56.083 38.841,57.579C38.841,58.597 38.603,59.429 38.125,60.08C37.648,60.731 37.015,61.123 36.224,61.255L36.224,61.371C37.302,61.61 38.079,62.059 38.556,62.722C39.033,63.379 39.272,64.256 39.272,65.349C39.272,66.9 38.711,68.111 37.591,68.978C36.47,69.847 34.948,70.282 33.026,70.282L26.664,70.282L26.663,53.277ZM30.269,60.012L32.363,60.012C33.341,60.012 34.048,59.862 34.486,59.559C34.924,59.256 35.143,58.756 35.143,58.059C35.143,57.408 34.904,56.94 34.427,56.658C33.95,56.375 33.197,56.233 32.165,56.233L30.269,56.233L30.269,60.012ZM30.269,62.873L30.269,67.305L32.619,67.305C33.611,67.305 34.345,67.117 34.817,66.735C35.29,66.356 35.527,65.774 35.527,64.992C35.527,63.581 34.518,62.875 32.503,62.875L30.269,62.873Z" style="fill:rgb(207,119,60);fill-rule:nonzero;"/>
        </g>
        <g>
            <rect x="53.609" y="48.33" width="26.899" height="26.9" style="fill:none;stroke:rgb(37,116,136);stroke-width:4px;"/>
            <path d="M68.561,56.041C67.206,56.041 66.155,56.551 65.411,57.57C64.666,58.59 64.294,60.009 64.294,61.833C64.294,65.625 65.717,67.521 68.564,67.521C69.757,67.521 71.205,67.222 72.902,66.625L72.902,69.648C71.506,70.23 69.949,70.521 68.226,70.521C65.752,70.521 63.861,69.771 62.55,68.269C61.239,66.769 60.584,64.617 60.584,61.808C60.584,60.039 60.905,58.492 61.55,57.162C62.195,55.832 63.117,54.813 64.323,54.102C65.528,53.393 66.942,53.039 68.561,53.039C70.212,53.039 71.874,53.438 73.54,54.237L72.377,57.168C71.741,56.866 71.102,56.603 70.458,56.377C69.813,56.152 69.182,56.041 68.561,56.041Z" style="fill:rgb(207,119,60);fill-rule:nonzero;"/>
        </g>
    </g>
</svg>
