<?xml version="1.0" encoding="UTF-8" standalone="no"?>
<!DOCTYPE svg PUBLIC "-//W3C//DTD SVG 1.1//EN" "http://www.w3.org/Graphics/SVG/1.1/DTD/svg11.dtd">
<svg width="100%" height="100%" viewBox="0 0 100 100" version="1.1" xmlns="http://www.w3.org/2000/svg" xmlns:xlink="http://www.w3.org/1999/xlink" xml:space="preserve" xmlns:serif="http://www.serif.com/" style="fill-rule:evenodd;clip-rule:evenodd;stroke-linecap:round;stroke-linejoin:round;stroke-miterlimit:10;">
    <g>
        <circle cx="50" cy="49.678" r="47.049" style="fill:white;"/>
        <circle cx="50" cy="49.678" r="47.049" style="fill:white;"/>
        <path d="M50.001,0C22.387,0 0,22.386 0,50C0,77.613 22.387,100 50.001,100C77.613,100 100,77.613 100,50C100,22.386 77.613,0 50.001,0ZM50.002,95C25.146,95 5,74.854 5,50C5,25.147 25.146,5 50.002,5C74.854,5 95,25.147 95,50C95,74.854 74.854,95 50.002,95Z" style="fill:rgb(189,226,232);fill-rule:nonzero;"/>
    </g>
    <g>
        <rect x="34.572" y="23.167" width="30.854" height="53.2" style="fill:none;stroke:rgb(37,116,136);stroke-width:4px;"/>
        <path d="M54.546,37.079C52.804,37.079 50.953,38.402 50,39.516C49.046,38.402 47.195,37.079 45.452,37.079C42.648,37.079 39.716,40.556 41.376,43.449L41.389,43.449L49.937,53.578L49.937,53.582L49.997,53.652L50,53.65L50.001,53.652L50.061,53.582L50.061,53.578L58.608,43.449L58.623,43.449C60.282,40.556 57.352,37.079 54.546,37.079Z" style="fill:rgb(207,119,60);fill-rule:nonzero;"/>
        <path d="M34.572,67.463L34.572,77.035L65.426,77.035L65.426,67.463L34.572,67.463ZM49.987,74.611C48.697,74.611 47.652,73.565 47.652,72.275C47.652,70.986 48.697,69.94 49.987,69.94C51.277,69.94 52.322,70.986 52.322,72.275C52.322,73.565 51.277,74.611 49.987,74.611Z" style="fill:rgb(37,116,136);fill-rule:nonzero;"/>
    </g>
</svg>
