<?xml version="1.0" encoding="UTF-8" standalone="no"?>
<!DOCTYPE svg PUBLIC "-//W3C//DTD SVG 1.1//EN" "http://www.w3.org/Graphics/SVG/1.1/DTD/svg11.dtd">
<svg width="100%" height="100%" viewBox="0 0 100 100" version="1.1" xmlns="http://www.w3.org/2000/svg" xmlns:xlink="http://www.w3.org/1999/xlink" xml:space="preserve" xmlns:serif="http://www.serif.com/" style="fill-rule:evenodd;clip-rule:evenodd;stroke-linejoin:round;stroke-miterlimit:2;">
    <g>
        <circle cx="50" cy="50" r="47" style="fill:white;"/>
        <path d="M50,0C22.4,0 0,22.4 0,50C0,77.6 22.4,100 50,100C77.6,100 100,77.6 100,50C100,22.4 77.6,0 50,0ZM50,95C25.1,95 5,74.9 5,50C5,25.1 25.1,5 50,5C74.9,5 95,25.1 95,50C95,74.9 74.9,95 50,95Z" style="fill:rgb(189,226,232);fill-rule:nonzero;"/>
    </g>
    <g>
        <g>
            <path d="M17.9,64L17.9,28.5C17.9,26.9 19.2,25.6 20.8,25.6L81,25.6C82.6,25.6 83.9,26.9 83.9,28.5L83.9,64C83.9,65.6 82.6,66.9 81,66.9L20.9,66.9C19.3,66.9 17.9,65.6 17.9,64Z" style="fill:rgb(37,116,136);fill-rule:nonzero;"/>
            <rect x="22.1" y="30" width="54.5" height="32.5" style="fill:white;"/>
            <path d="M40.2,37.3L25.6,62.5L54.7,62.5L40.2,37.3Z" style="fill:rgb(207,119,60);fill-rule:nonzero;"/>
            <circle cx="62.9" cy="40.4" r="6" style="fill:rgb(207,119,60);"/>
        </g>
        <g>
            <path d="M69.7,82.3L56.1,82.3C53.7,82.3 51.7,80.3 51.7,77.9L51.7,54.2C51.7,51.8 53.7,49.8 56.1,49.8L69.6,49.8C72,49.8 74,51.8 74,54.2L74,77.9C74,80.3 72.1,82.3 69.7,82.3Z" style="fill:white;fill-rule:nonzero;"/>
            <g>
                <path d="M68.9,80.3L56.9,80.3C55.3,80.3 54,79 54,77.4L54,55.2C54,53.6 55.3,52.3 56.9,52.3L68.9,52.3C70.5,52.3 71.8,53.6 71.8,55.2L71.8,77.4C71.9,79 70.5,80.3 68.9,80.3Z" style="fill:rgb(37,116,136);fill-rule:nonzero;"/>
                <rect x="56.4" y="54.9" width="13.1" height="20.3" style="fill:white;"/>
                <path d="M62.9,66.9L58.1,75.4L67.7,75.4L62.9,66.9Z" style="fill:rgb(207,119,60);fill-rule:nonzero;"/>
                <circle cx="62.9" cy="61.4" r="3.7" style="fill:rgb(207,119,60);"/>
            </g>
        </g>
    </g>
</svg>
