<?xml version="1.0" encoding="UTF-8" standalone="no"?>
<!DOCTYPE svg PUBLIC "-//W3C//DTD SVG 1.1//EN" "http://www.w3.org/Graphics/SVG/1.1/DTD/svg11.dtd">
<svg width="100%" height="100%" viewBox="0 0 100 100" version="1.1" xmlns="http://www.w3.org/2000/svg" xmlns:xlink="http://www.w3.org/1999/xlink" xml:space="preserve" xmlns:serif="http://www.serif.com/" style="fill-rule:evenodd;clip-rule:evenodd;stroke-linejoin:round;stroke-miterlimit:2;">
    <g>
        <circle cx="50" cy="50" r="47" style="fill:white;"/>
        <path d="M50,0C22.4,0 0,22.4 0,50C0,77.6 22.4,100 50,100C77.6,100 100,77.6 100,50C100,22.4 77.6,0 50,0ZM50,95C25.1,95 5,74.9 5,50C5,25.1 25.1,5 50,5C74.9,5 95,25.1 95,50C95,74.9 74.9,95 50,95Z" style="fill:rgb(189,226,232);fill-rule:nonzero;"/>
    </g>
    <path d="M67.5,50.8L66.1,53.7L38.3,39.9L39.7,37C39.7,37 40.2,36.5 41,36.5C42.7,36.4 51,39.6 52.2,38.7C53.4,37.8 52,33.2 52.3,30.9C52.6,28.6 60,16.8 62.6,16.2C64.3,15.8 65.3,16 66.7,16.6C66.8,16.6 66.9,16.7 67,16.8C67.1,16.8 67.2,16.9 67.3,16.9C68.6,17.6 69.4,18.3 70.1,19.9C71.2,22.3 66.2,35.5 64.6,37.1C63,38.7 58.5,40.5 58.5,41.9C58.6,43.4 66.2,48 67.1,49.4C67.6,50.1 67.5,50.8 67.5,50.8Z" style="fill:rgb(37,116,136);fill-rule:nonzero;"/>
    <g transform="matrix(0.4416,-0.8972,0.8972,0.4416,-17.2178,73.3682)">
        <rect x="48.2" y="35" width="4.3" height="31" style="fill:rgb(37,116,136);"/>
    </g>
    <path d="M62.4,61.1L53.8,78.5C53.1,79.8 51.5,80.4 50.2,79.7L43.5,76.4L49.5,62.2L42,75.7L29.9,69.8L32.6,62.9L28.8,69.2L27.2,68.4C25.9,67.7 25.3,66.1 26,64.8L34.6,47.4L62.4,61.1Z" style="fill:rgb(207,119,60);fill-rule:nonzero;"/>
</svg>
