<svg class="portrait" viewBox="0 0 368 284" style="fill-rule:evenodd;clip-rule:evenodd;" aria-hidden="true">  
  <rect class="skin chest" x="122.864" y="194.389" width="104.136" height="89.597"/>
  <path class="hair-shadow hair-shadow--right" d="M226.733,193.19c0,0 12.513,0.896 8.692,20.267l13.855,-19.793c0,0 1.72,-57.498 1.669,-57.249c-2.427,11.834 -4.465,32.336 -24.216,56.775Z"/>
  <path class="shirt shirt-left" d="M140,184.986c0,0 -9.537,90.906 -15,99l-125,0c0,0 12.832,-70.085 34,-80c24.512,-11.483 80.373,-4.012 106,-19Z" />
  <path class="shirt shirt-right" d="M228,188.986c0,0 -28.629,86.906 -25,95l165,0c0,0 -42.532,-48.827 -77,-62c-34.468,-13.174 -44.145,-22.847 -63,-33Z" />
  <path class="shirt-shadow shirt-shadow-left" d="M53.231,252.986l-6.231,31l9,0l-2.769,-31Z" />
  <path class="shirt-shadow shirt-shadow-right" d="M283.253,261.986l2.077,22l-3,0l0.923,-22Z" />
  <path class="skin-shadow" d="M220.614,201.053c0.249,-0.188 0.5,-0.378 0.751,-0.57c-5.525,10.626 -17.742,24.408 -41.363,24.239c-23.549,-0.17 -34.32,-19.79 -34.514,-20.147c10.448,7.813 22.527,12.275 35.391,12.275c14.691,0 28.357,-5.819 39.735,-15.797Z"/>
  <path class="skin face" d="M180.879,27.946c39.619,0 71.784,42.322 71.784,94.452c0,52.129 -32.165,94.452 -71.784,94.452c-39.619,0 -71.784,-42.323 -71.784,-94.452c0,-16.461 3.085,-31.971 8.722,-45.453c12.213,-29.212 35.954,-48.999 63.062,-48.999Z"/>
  <path class="nostril nostril-left" d="M161.526,143.263c0,0 7.717,9.644 7.599,5.221c-0.117,-4.423 -3.854,-3.485 -7.599,-5.221Z" />
  <path class="nostril nostril-right" d="M190.563,147.085c-0,0 -9.461,7.939 -8.477,3.625c0.985,-4.314 4.464,-2.659 8.477,-3.625Z" />
  <path class="hair" d="M165.724,32.677c0,0 -24.545,3.588 -42.788,33.984c-16.78,27.958 -24.981,91.583 18.487,134.635c0.251,0.248 -22.72,23.374 -33.313,29.69c0,0 -50.603,-27.307 -62.11,-27c0,0 50.554,-7.068 52.472,-57c0.92,-23.93 -3.613,-50.906 3.48,-76.414c6.048,-21.752 28.251,-70.392 80.048,-67.586c6.609,-6.731 56.198,-7.039 86,54c26.867,55.027 30.327,120.681 -30,210l-26.009,-8c0,0 33.803,-41.469 38.958,-122.571c0,0 -38.307,-81.419 -45.366,-86.429c-7.058,-5.01 -23.541,-22.279 -39.859,-17.309" />
  <path class="eye eye-left eye-open" d="M152.596,97c-0.431,-0.051 -7.386,-0.919 -10.223,-4.095c0,0 1.436,5.073 6.427,6.092c-1.419,1.69 -2.329,4.299 -2.329,7.225c0,5.089 2.754,9.22 6.146,9.22c3.393,0 6.147,-4.131 6.147,-9.22c0,-5.088 -2.754,-9.22 -6.147,-9.22l-0.021,-0.002Z" />
  <path class="eye eye-right eye-open" d="M214.793,108.268c-0.432,-0.051 -7.386,-0.919 -10.224,-4.095c0,0 1.436,5.073 6.428,6.093c-1.419,1.689 -2.33,4.299 -2.33,7.225c0,5.088 2.754,9.219 6.147,9.219c3.392,0 6.146,-4.131 6.146,-9.219c0,-5.089 -2.754,-9.22 -6.146,-9.22l-0.021,-0.003Z"/>
  <path class="eye eye-left eye-closed" d="M205.063,120.358c1.967,2.227 6.484,3.675 10.417,4.104c1.156,0.126 3.491,0.581 3.144,0.984c-2.111,2.453 -6.222,1.182 -7.176,0.994c-3.693,-0.73 -5.871,-4.066 -6.385,-6.082Z"/>
  <path class="eye eye-right eye-closed" d="M142.491,108.786c1.968,2.227 6.485,3.676 10.417,4.105c1.156,0.126 3.492,0.581 3.145,0.983c-2.112,2.454 -6.222,1.183 -7.176,0.994c-3.694,-0.73 -5.871,-4.065 -6.386,-6.082Z"/>
  <path class="eyebrow" d="M122.577,78.805c0,0 13.406,-2.955 24.302,1.089c5.999,2.227 7.996,5.635 13.502,6.539c4.385,0.72 5.412,-1.178 4.05,-3.269c-2.193,-3.37 -8.411,-7.588 -15.17,-8.719c-6.759,-1.13 -16.537,-0.619 -26.684,4.36Z" />
  <path class="teeth" d="M141.568,155.183c0,0 27.029,16.471 68.954,12.368c-0.522,12.934 -16.73,25.211 -41.033,20.097c-19.925,-4.193 -28.005,-18.103 -27.921,-32.465Z" />
  <path class="lips" d="M141.568,155.183c0,0 27.029,16.471 68.954,12.368c-0.522,12.934 -16.73,25.211 -41.033,20.097c-19.925,-4.193 -28.005,-18.103 -27.921,-32.465Zm3.365,5.115c9.376,4.389 31.601,12.702 62,10.565c-0.958,3.132 -3.027,6.076 -5.984,8.503c-6.57,5.393 -17.375,8.18 -30.843,5.346c-15.783,-3.321 -23.48,-13.273 -25.174,-24.415l0.001,0.001Z" />
  <path class="hair-shadow hair-shadow--left" d="M121.814,174.658c-0,0 -0.95,11.349 -3.096,25.566c-1.865,12.358 -10.816,30.876 -10.608,30.762c9.966,-5.442 27.004,-21.241 33.457,-29.675c0,0 -8.585,-7.404 -19.753,-26.653Z" />
  <path class="glasses" d="M239.189,102.658l-72.647,-13.244l-0.003,0.017c-0.185,-0.045 -0.372,-0.085 -0.562,-0.12l-37.404,-6.819c-5.161,-0.941 -10.115,2.485 -11.055,7.646l-3.41,18.702c-0.941,5.161 2.485,10.115 7.646,11.056l37.404,6.819c5.161,0.941 10.115,-2.486 11.056,-7.646l3.409,-18.702c0.31,-1.703 0.146,-3.383 -0.4,-4.904l19.612,3.575c-1.048,1.231 -1.795,2.745 -2.105,4.447l-3.41,18.702c-0.94,5.161 2.486,10.115 7.647,11.056l37.403,6.819c5.161,0.941 10.115,-2.485 11.056,-7.646l3.409,-18.702c0.941,-5.161 -2.485,-10.115 -7.646,-11.056Zm-70.668,-0.806c0.706,-3.871 -1.864,-7.586 -5.734,-8.292l-32.728,-5.966c-3.871,-0.706 -7.586,1.864 -8.292,5.734l-2.557,14.027c-0.706,3.87 1.864,7.586 5.734,8.291l32.729,5.967c3.87,0.706 7.586,-1.864 8.291,-5.735l2.557,-14.026Zm73.213,13.347c0.705,-3.87 -1.864,-7.586 -5.735,-8.292l-32.728,-5.966c-3.871,-0.706 -7.586,1.864 -8.292,5.735l-2.557,14.026c-0.706,3.871 1.864,7.586 5.735,8.292l32.728,5.966c3.871,0.706 7.586,-1.864 8.292,-5.734l2.557,-14.027Z" />
  <path class="hair-highlight bangs" d="M166.736,32.411c-45.887,-12.211 -65.479,64.906 -56.334,105.04c-20,-24.176 -23.482,-126.346 54.591,-124.879c3.271,0.061 6.672,0.773 10.241,1.505l-0.001,0.001c3.012,-0.725 6.188,-1.045 8.767,-1.092c9.167,-0.167 29.802,4.301 42,45c12.198,40.699 51,89 51,89c-80.015,-25.692 -104.231,-89.833 -110.264,-114.575Z" />
</svg>