<svg class="clip-path" viewBox="0 0 558 284" style="fill-rule:evenodd;clip-rule:evenodd;" aria-hidden="true">
  <clipPath id="clip-path">
    <path class="grid" d="M423,54.986l0,-22l-4,-0l0,22l-14,-0l0,4l14,-0l0,24l-24,-0l0,-13l-4,-0l0,13l-24,-0l0,4l24,-0l0,24l-24,-0l0,4l24,-0l0,24l-24,0l0,4l24,0l0,24l-24,0l0,4l24,0l0,24l4,0l0,-24l24,0l0,24l4,0l0,-24l23,0l0,-4l-23,0l0,-24l14,0l0,-4l-14,0l0,-24l24,0l0,11l4,0l0,-11l24,0l0,24l-14,0l0,4l14,0l0,13l4,0l0,-13l24,0l0,13l4,0l0,-13l24,0l0,13l4,0l0,-13l22.855,0l0,-4l-22.855,0l0,-24l23,0l0,-4l-23,0l0,-10l-4,0l0,10l-24,0l0,-24l11,0l0,-4l-11,0l0,-23l-4,0l0,23l-24,0l0,-24l12,0l0,-4l-12,0l0,-22l-4,0l0,22l-24,0l0,-22l-4,0l0,22l-24,0Zm-28,88l0,24l24,0l0,-24l-24,0Zm0,-28l0,24l24,0l0,-24l-24,0Zm84,0l0,24l24,0l0,-24l-24,0Zm28,0l0,24l24,0l0,-24l-24,0Zm-112,-4l24,0l0,-24l-24,0l0,24Zm28,0l24,0l0,-24l-24,0l0,24Zm28,0l24,0l0,-24l-24,0l0,24Zm28,0l24,0l0,-24l-24,0l0,24Zm-28,-52l0,24l24,0l0,-24l-24,0Zm-28,0l0,24l24,0l0,-24l-24,0Z" />
    <path class="grid" d="M28,171.986l0,-24l-4,0l0,24l-13,0l0,4l13,0l0,24l-24,0l0,4l24,0l0,24l-24,0l0,4l24,0l0,21l4,0l0,-21l24,0l0,52l4,0l0,-52l24,0l0,24l-14,0l0,4l14,0l0,24l4,0l0,-24l24,0l0,24l4,0l0,-24l24,0l0,24l4,0l0,-24l35,0l0,-4l-35,0l0,-24l36,0l0,-4l-36,0l0,-24l36,0l0,-4l-36,0l0,-24l30,0l0,-4l-30,0l0,-24l-4,0l0,24l-24,0l0,-24l-4,0l0,24l-14,0l0,4l14,0l0,24l-24,0l0,-12l-4,0l0,12l-24,0l0,-24l14,0l0,-4l-14,0l0,-24l-4,0l0,24l-24,0Zm108,60l-24,0l0,24l24,0l0,-24Zm-28,0l-24,0l0,24l24,0l0,-24Zm28,-28l-24,0l0,24l24,0l0,-24Zm-28,0l-24,0l0,24l24,0l0,-24Zm-80,0l0,24l24,0l0,-24l-24,0Zm28,0l0,24l24,0l0,-24l-24,0Zm80,-28l-24,0l0,24l24,0l0,-24Zm-108,0l0,24l24,0l0,-24l-24,0Z" />
  </clipPath>
</svg>