<?xml version="1.0" encoding="UTF-8" standalone="no"?><!DOCTYPE svg PUBLIC "-//W3C//DTD SVG 1.1//EN" "http://www.w3.org/Graphics/SVG/1.1/DTD/svg11.dtd"><svg width="100%" height="100%" viewBox="0 0 558 284" version="1.1" xmlns="http://www.w3.org/2000/svg" xmlns:xlink="http://www.w3.org/1999/xlink" xml:space="preserve" xmlns:serif="http://www.serif.com/" style="fill-rule:evenodd;clip-rule:evenodd;stroke-linejoin:round;stroke-miterlimit:2;"><path d="M423,54.986l-0,-22l-4,-0l-0,22l-14,-0l0,4l14,-0l-0,24l-24,-0l0,-13l-4,-0l0,13l-24,-0l0,4l24,-0l0,24l-24,-0l0,4l24,-0l0,24l-24,-0l0,4l24,-0l0,24l-24,-0l0,4l24,-0l0,24l4,-0l0,-24l24,-0l-0,24l4,-0l-0,-24l23,-0l-0,-4l-23,-0l-0,-24l14,-0l-0,-4l-14,-0l-0,-24l24,-0l-0,11l4,-0l-0,-11l24,-0l0,24l-14,-0l0,4l14,-0l0,13l4,-0l0,-13l24,-0l0,13l4,-0l0,-13l24,-0l0,13l4,-0l0,-13l22.855,-0l0,-4l-22.855,-0l0,-24l23,-0l0,-4l-23,-0l0,-10l-4,-0l0,10l-24,-0l0,-24l11,-0l-0,-4l-11,-0l0,-23l-4,-0l0,23l-24,-0l0,-24l12,-0l-0,-4l-12,-0l0,-22l-4,-0l0,22l-24,-0l-0,-22l-4,-0l-0,22l-24,-0Zm-28,88l0,24l24,-0l-0,-24l-24,-0Zm0,-28l0,24l24,-0l-0,-24l-24,-0Zm84,-0l0,24l24,-0l0,-24l-24,-0Zm28,-0l0,24l24,-0l0,-24l-24,-0Zm-112,-4l24,-0l-0,-24l-24,-0l0,24Zm28,-0l24,-0l-0,-24l-24,-0l-0,24Zm28,-0l24,-0l0,-24l-24,-0l-0,24Zm28,-0l24,-0l0,-24l-24,-0l0,24Zm-28,-52l-0,24l24,-0l0,-24l-24,-0Zm-28,-0l-0,24l24,-0l-0,-24l-24,-0Z" style="fill:#007b8e;fill-opacity:0.4;"/><path d="M28,171.986l0,-24l-4,-0l0,24l-13,-0l0,4l13,-0l0,24l-24,-0l0,4l24,-0l0,24l-24,-0l0,4l24,-0l0,21l4,-0l0,-21l24,-0l0,52l4,-0l0,-52l24,-0l0,24l-14,-0l0,4l14,-0l0,24l4,-0l0,-24l24,-0l0,24l4,-0l0,-24l24,-0l0,24l4,-0l0,-24l35,-0l0,-4l-35,-0l0,-24l36,-0l0,-4l-36,-0l0,-24l36,-0l0,-4l-36,-0l0,-24l30,-0l0,-4l-30,-0l0,-24l-4,-0l0,24l-24,-0l0,-24l-4,-0l0,24l-14,-0l0,4l14,-0l0,24l-24,-0l0,-12l-4,-0l0,12l-24,-0l0,-24l14,-0l0,-4l-14,-0l0,-24l-4,-0l0,24l-24,-0Zm108,60l-24,-0l0,24l24,-0l0,-24Zm-28,-0l-24,-0l0,24l24,-0l0,-24Zm28,-28l-24,-0l0,24l24,-0l0,-24Zm-28,-0l-24,-0l0,24l24,-0l0,-24Zm-80,-0l0,24l24,-0l0,-24l-24,-0Zm28,-0l0,24l24,-0l0,-24l-24,-0Zm80,-28l-24,-0l0,24l24,-0l0,-24Zm-108,-0l0,24l24,-0l0,-24l-24,-0Z" style="fill:#007b8e;fill-opacity:0.4;"/><g id="Illustration"><rect x="211" y="184.986" width="108" height="99" style="fill:#f6e2e5;"/><path d="M318.733,193.19c-0,-0 12.513,0.896 8.692,20.267l13.855,-19.793c-0,-0 1.72,-57.498 1.669,-57.249c-2.427,11.834 -4.465,32.336 -24.216,56.775Z" style="fill:#cca478;"/><path d="M232,184.986c0,-0 -9.537,90.906 -15,99l-125,-0c0,-0 12.832,-70.085 34,-80c24.512,-11.483 80.373,-4.012 106,-19Z" style="fill:#007b8e;"/><path d="M320,188.986c0,-0 -28.629,86.906 -25,95l165,-0c0,-0 -42.532,-48.827 -77,-62c-34.468,-13.174 -44.145,-22.847 -63,-33Z" style="fill:#007b8e;"/><path d="M145.231,252.986l-6.231,31l9,-0l-2.769,-31Z" style="fill:#006373;"/><path d="M375.253,261.986l2.077,22l-3,-0l0.923,-22Z" style="fill:#006373;"/><path d="M272.879,27.946c39.619,-0 71.784,42.322 71.784,94.452c0,52.129 -32.165,94.452 -71.784,94.452c-39.619,-0 -71.784,-42.323 -71.784,-94.452c-0,-16.461 3.085,-31.971 8.722,-45.453c12.213,-29.212 35.954,-48.999 63.062,-48.999Z" style="fill:#f6e2e5;"/><path d="M253.526,143.263c0,0 7.717,9.644 7.599,5.221c-0.117,-4.423 -3.854,-3.485 -7.599,-5.221Z" style="fill:#c7908b;"/><path d="M282.563,147.085c0,0 -9.461,7.939 -8.477,3.625c0.985,-4.314 4.464,-2.659 8.477,-3.625Z" style="fill:#c7908b;"/><path d="M257.724,32.677c0,0 -24.545,3.588 -42.788,33.984c-16.78,27.958 -24.981,91.583 18.487,134.635c0.251,0.248 -22.72,23.374 -33.313,29.69c0,-0 -50.603,-27.307 -62.11,-27c0,-0 50.554,-7.068 52.472,-57c0.92,-23.93 -3.613,-50.906 3.48,-76.414c6.048,-21.752 28.251,-70.392 80.048,-67.586c6.609,-6.731 56.198,-7.039 86,54c26.867,55.027 30.327,120.681 -30,210l-26.009,-8c0,-0 33.803,-41.469 38.958,-122.571c-0,0 -38.307,-81.419 -45.366,-86.429c-7.058,-5.01 -23.541,-22.279 -39.859,-17.309" style="fill:#dfc59a;"/><path d="M244.596,97c-0.431,-0.051 -7.386,-0.919 -10.223,-4.095c0,-0 1.436,5.073 6.427,6.092c-1.419,1.69 -2.329,4.299 -2.329,7.225c-0,5.089 2.754,9.22 6.146,9.22c3.393,-0 6.147,-4.131 6.147,-9.22c-0,-5.088 -2.754,-9.22 -6.147,-9.22l-0.021,-0.002Z" style="fill:#5b8ae1;"/><path d="M306.793,108.268c-0.432,-0.051 -7.386,-0.919 -10.224,-4.095c0,0 1.436,5.073 6.428,6.093c-1.419,1.689 -2.33,4.299 -2.33,7.225c0,5.088 2.754,9.219 6.147,9.219c3.392,0 6.146,-4.131 6.146,-9.219c0,-5.089 -2.754,-9.22 -6.146,-9.22l-0.021,-0.003Z" style="fill:#5b8ae1;"/><path d="M214.577,78.805c-0,-0 13.406,-2.955 24.302,1.089c5.999,2.227 7.996,5.635 13.502,6.539c4.385,0.72 5.412,-1.178 4.05,-3.269c-2.193,-3.37 -8.411,-7.588 -15.17,-8.719c-6.759,-1.13 -16.537,-0.619 -26.684,4.36Z" style="fill:#855931;"/><path d="M233.568,155.183c0,0 27.029,16.471 68.954,12.368c-0.522,12.934 -16.73,25.211 -41.033,20.097c-19.925,-4.193 -28.005,-18.103 -27.921,-32.465Z" style="fill:#fff;"/><path d="M233.568,155.183c0,0 27.029,16.471 68.954,12.368c-0.522,12.934 -16.73,25.211 -41.033,20.097c-19.925,-4.193 -28.005,-18.103 -27.921,-32.465Zm3.365,5.115c9.376,4.389 31.601,12.702 62,10.565c-0.958,3.132 -3.027,6.076 -5.984,8.503c-6.57,5.393 -17.375,8.18 -30.843,5.346c-15.783,-3.321 -23.48,-13.273 -25.174,-24.415l0.001,0.001Z" style="fill:#e89fa1;"/><path d="M213.814,174.658c-0,-0 -0.95,11.349 -3.096,25.566c-1.865,12.358 -10.816,30.876 -10.608,30.762c9.966,-5.442 26.781,-21.333 33.234,-29.767c-0,0 -8.362,-7.312 -19.53,-26.561Z" style="fill:#cba479;"/><path d="M331.189,102.658l-72.647,-13.244l-0.003,0.017c-0.185,-0.045 -0.372,-0.085 -0.562,-0.12l-37.404,-6.819c-5.161,-0.941 -10.115,2.485 -11.055,7.646l-3.41,18.702c-0.941,5.161 2.485,10.115 7.646,11.056l37.404,6.819c5.161,0.941 10.115,-2.486 11.056,-7.646l3.409,-18.702c0.31,-1.703 0.146,-3.383 -0.4,-4.904l19.612,3.575c-1.048,1.231 -1.795,2.745 -2.105,4.447l-3.41,18.702c-0.94,5.161 2.486,10.115 7.647,11.056l37.403,6.819c5.161,0.941 10.115,-2.485 11.056,-7.646l3.409,-18.702c0.941,-5.161 -2.485,-10.115 -7.646,-11.056Zm-70.668,-0.806c0.706,-3.871 -1.864,-7.586 -5.734,-8.292l-32.728,-5.966c-3.871,-0.706 -7.586,1.864 -8.292,5.734l-2.557,14.027c-0.706,3.87 1.864,7.586 5.734,8.291l32.729,5.967c3.87,0.706 7.586,-1.864 8.291,-5.735l2.557,-14.026Zm73.213,13.347c0.705,-3.87 -1.864,-7.586 -5.735,-8.292l-32.728,-5.966c-3.871,-0.706 -7.586,1.864 -8.292,5.735l-2.557,14.026c-0.706,3.871 1.864,7.586 5.735,8.292l32.728,5.966c3.871,0.706 7.586,-1.864 8.292,-5.734l2.557,-14.027Z" style="fill:#222;"/><path d="M237.279,206.704c-0,-0 11.833,17.159 35.598,17.33c23.621,0.169 39.239,-17.78 40.563,-25.377c-17.913,18.029 -49.236,25.459 -76.161,8.047Z" style="fill:#dbb7b4;"/><path d="M267.234,14.077c-0,0 -6.475,5.565 -8.498,18.334c-45.887,-12.211 -65.479,64.906 -56.334,105.04c-20,-24.176 -23.482,-126.346 54.591,-124.879c3.271,0.061 6.672,0.773 10.241,1.505Z" style="fill:#e4d5b7;"/><path d="M276,12.986c-7.309,0.133 -19.419,2.457 -19,10c0.419,7.542 16.3,93.272 112,124c0,-0 -38.802,-48.301 -51,-89c-12.198,-40.699 -32.833,-45.167 -42,-45Z" style="fill:#e4d5b8;"/></g></svg>