<!--
========================
This file contains icons
========================

on the page:

<svg><use xlink:href="<?php echo $SVG_PATH; ?>#icon-name" /></svg>

-->

<svg version="1.1" xmlns="http://www.w3.org/2000/svg" xmlns:xlink="http://www.w3.org/1999/xlink" style="display:none;">

	<defs>
		<symbol id="icon-linkedin" viewBox="0 0 32 32">
			<path d="M16,0C7.2,0,0,7.2,0,16s7.2,16,16,16s16-7.2,16-16S24.8,0,16,0z M16,29C8.8,29,3,23.2,3,16S8.8,3,16,3s13,5.8,13,13
			S23.2,29,16,29z"/>
			<ellipse cx="11.4" cy="10" rx="1.4" ry="1.4"/>
			<rect x="9.9" y="12.9" width="2.9" height="8.6"/>
			<path d="M17.1,12.9h-2.9v8.6h2.9v-4.1c0-2.4,2.9-2.7,2.9,0v4.1h2.9v-4.8c0-4.8-4.5-4.5-5.7-2.2C17.1,14.6,17.1,12.9,17.1,12.9z"/>
		</symbol>

		<symbol id="icon-instagram" viewBox="0 0 32 32">
			<path d="M16,0C7.2,0,0,7.2,0,16s7.2,16,16,16s16-7.2,16-16S24.8,0,16,0z M16,29C8.8,29,3,23.2,3,16S8.8,3,16,3s13,5.8,13,13
			S23.2,29,16,29z"/>
			<circle cx="20.1" cy="11.9" r="1.1"/>
			<path d="M16,11.9c-2.2,0-4.1,1.9-4.1,4.1s1.9,4.1,4.1,4.1s4.1-1.9,4.1-4.1S18.2,11.9,16,11.9z M16,18.2c-1.3,0-2.2-1.1-2.2-2.2
			c0-1.3,1.1-2.2,2.2-2.2c1.3,0,2.2,1.1,2.2,2.2C18.2,17.2,17.2,18.2,16,18.2z"/>
			<path d="M19.5,8h-7.1C10,8,8,10,8,12.5v7.1C8,22,10,24,12.5,24h7.1c2.5,0,4.5-2,4.5-4.5v-7.2C23.9,9.9,21.9,8,19.5,8z M22.1,19.4
			c0,1.5-1.3,2.8-2.8,2.8h-6.6c-1.5,0-2.8-1.3-2.8-2.8v-6.7c0-1.5,1.3-2.8,2.8-2.8h6.6c1.5,0,2.8,1.3,2.8,2.8
			C22.1,12.6,22.1,19.4,22.1,19.4z"/>
		</symbol>

		<symbol id="icon-codepen" viewBox="0 0 32 32">
			<path d="M16,0C7.2,0,0,7.2,0,16s7.2,16,16,16s16-7.2,16-16S24.8,0,16,0z M16,29C8.8,29,3,23.2,3,16S8.8,3,16,3s13,5.8,13,13
			S23.2,29,16,29z"/>
			<path d="M24.4,12.8l-7.8-5.2c-0.4-0.2-0.8-0.2-1.2,0l-7.8,5.2c-0.2,0.1-0.4,0.4-0.4,0.6v5.2c0,0.2,0.1,0.5,0.4,0.6l7.8,5.2
			c0.4,0.2,0.8,0.2,1.2,0l7.8-5.2c0.2-0.1,0.4-0.4,0.4-0.6v-5.2C24.8,13.1,24.7,12.9,24.4,12.8z M16.7,13V9.6l5.7,3.8l-2.6,1.7
			L16.7,13z M18.7,16.1L16,17.8l-2.7-1.7l2.7-1.8L18.7,16.1z M15.3,9.6V13l-3.2,2.1l-2.6-1.7L15.3,9.6z M8.9,14.7l1.8,1.2l-1.8,1.2
			V14.7z M12.1,16.9l3.2,2.1v3.4l-5.7-3.8L12.1,16.9z M16.7,22.4V19l3.2-2.1l2.6,1.7L16.7,22.4z M23.1,17.2l-1.8-1.2l1.8-1.2V17.2z"/>
		</symbol>

		<symbol id="icon-github" viewBox="0 0 32 32">
			<path d="M16,0C7.2,0,0,7.2,0,16s7.2,16,16,16s16-7.2,16-16S24.8,0,16,0z M16,29C8.8,29,3,23.2,3,16S8.8,3,16,3s13,5.8,13,13
			S23.2,29,16,29z"/>
			<path d="M22.6,11.1c0.1-2.1,0-3.5-1.1-3.5c-1.1,0-2.5,0.7-2.9,1.1c-0.6-0.3-2.5-0.3-2.5-0.3s-1.9,0-2.5,0.3
			c-0.4-0.4-1.8-1.1-2.9-1.1S9.4,9,9.6,11.1c0.1,0.4-1.2,1.7-1,3.6c0.1,1.8,0.4,5.1,4.3,5.8c0,0-0.1,0.7-0.1,1v0.3
			c-0.1,0.1-0.4,0.1-1,0.1c-1.5,0-2.6-1.5-2.9-1.8c-0.7-0.6-1.2-0.8-1.4-0.8H7.3c-0.4,0-0.8,0.4-0.8,0.8c0,0.4,0.3,0.7,0.6,0.8
			c0.3,0.1,0.7,0.4,1.2,1c1.7,1.8,3.9,1.7,4.4,1.7v0.6c0,0.4,0.4,0.8,0.8,0.8s0.8-0.4,0.8-0.8v-2.6c0-0.1,0.1-0.8,0.3-1
			c0.1-0.1,0.4-0.6,0.3-1c-0.1-0.7-0.8-0.7-1.1-0.7c-0.6-0.1-3.5-0.1-3.6-4.4c0.1-1.8,0.7-1.7,1-2.8c0.3-0.8-0.1-1.2,0-2.2
			c1,0.3,1.5,0.8,1.9,1c0.4,0.3,1.2-0.3,2.9-0.3s2.5,0.6,2.9,0.3c0.4-0.1,1-0.7,1.9-1c0.1,1-0.3,1.4,0,2.2c0.3,1.1,0.8,1,1,2.8
			c-0.1,4.3-3.1,4.3-3.6,4.4c-0.3,0-1,0-1.1,0.7c-0.1,0.4,0.1,0.8,0.3,1c0.1,0.1,0.3,0.8,0.3,1v2.6c0,0.4,0.4,0.8,0.8,0.8
			s0.8-0.4,0.8-0.8v-2.6c0-0.3-0.1-1-0.1-1c3.9-0.7,4.2-4,4.3-5.8C23.9,12.8,22.5,11.5,22.6,11.1z"/>
		</symbol>

		<symbol id="icon-logo" viewBox="0 0 231 24">
			<g class="icon-logo-mark">
				<path d="M15,21.7c-1.1,0-1.8-0.9-1.8-2v-6.4h3.2v-2h-3.2v-2h-2v2H6.6C4.1,11.2,2,9,2,6.5S4,2,6.5,2s4.8,2,4.8,4.5h2
				c0-3.6-3.1-6.5-6.8-6.5S0,2.9,0,6.5s3,6.8,6.6,6.8h4.7v6.4c0,2.2,1.6,4,3.8,4h7v-2H15z"/>
				<polygon points="12.5,0.3 13.8,2.3 22,2.3 22,23.7 24,23.7 24,0.3 	"/>
				<polygon points="9.2,21.7 2,21.7 2,13.7 0,12.2 0,23.7 10.5,23.7 	"/>
			</g>
			<g class="icon-logo-word">
				<path d="M221,12.6v9.3h10v1.8h-12V0.3h12v1.8h-10v8.7h9v1.8C230,12.6,221,12.6,221,12.6z"/>
				<path d="M149,2.1h-6.5v21.6h-2V2.1H134V0.3h15"/>
				<path d="M46.6,16.4c-0.2,2.6-1,4.5-2.2,5.7c-1.3,1.2-2.9,1.9-5.1,1.9c-2.2,0-4-0.9-5.3-2.6s-2-4-2-6.9v-5c0-2.9,0.6-5.2,2-6.9
				C35.3,0.8,37.2,0,39.5,0c2.2,0,3.7,0.5,4.9,1.8s2,3.2,2.2,5.8h-1.8c-0.2-2.1-1-3.7-1.8-4.6s-1.8-1.2-3.5-1.2
				c-1.8,0-3.1,0.6-4.1,1.9C34.4,5,34,7,34,9.5v5c0,2.5,0.5,4.4,1.5,5.8s2.1,2,3.8,2c1.8,0,3-0.4,3.8-1.3s1.5-2.4,1.7-4.5h1.8V16.4z"
				/>
				<path d="M60.6,17.1h-8.8l-2,6.6H48l7.5-23.4h1.7l7.4,23.4h-1.9L60.6,17.1z M52.4,15.4h7.7L56.2,2.9L52.4,15.4z"/>
				<path d="M178.7,17.1h-8.8l-2,6.6H166l7.5-23.4h1.7l7.4,23.4h-1.9L178.7,17.1z M170.4,15.4h7.7l-3.8-12.5L170.4,15.4z"/>
				<path d="M69,23.7h-2V0.3h2V23.7z"/>
				<path d="M107,23.7h-2V0.3h2V23.7z"/>
				<path d="M87.5,2.1H81v21.6h-2V2.1h-6.5V0.3h15"/>
				<path d="M93,21.9h9.5v1.8H91V0.3h2V21.9z"/>
				<path d="M124,23.7L113,3.8v19.9h-2V0.3h2l11,19.9V0.3h2v23.4C126,23.7,124,23.7,124,23.7z"/>
				<path d="M154,12.6v9.3h10v1.8h-12V0.3h12v1.8h-10v8.7h9v1.8C163,12.6,154,12.6,154,12.6z"/>
				<path d="M198.6,20.9c-0.8,1-1.7,1.8-2.9,2.3s-2.5,0.8-3.9,0.8c-2.4,0-4.4-0.9-5.8-2.5c-1.4-1.6-1.9-3.7-2-6.5V9.2
				c0-3,0.7-5.2,2-6.8s3.1-2.4,5.5-2.4c2.1,0,3.8,0.5,5,1.7s2,3.1,2.1,5.3h-2c-0.2-1.8-0.7-3.2-1.6-4s-1.9-1.2-3.5-1.2
				c-1.9,0-3.2,0.5-4.2,1.8S186,6.8,186,9.2V15c0,2.4,0.4,3.7,1.4,5.1c1.1,1.4,2.5,2.1,4.4,2.1c2,0,3.5-0.6,4.8-1.9v-6h-4.9v-1.8h6.9
				V20.9z"/>
				<path d="M215.8,0.3v16.6c0,2.2-0.6,4-1.8,5.2c-1.2,1.3-2.9,1.8-5.1,1.8c-2.2,0-3.9-0.6-5.1-1.8c-1.2-1.2-1.8-3-1.8-5.3V0.3h2v16.5
				c0,3.7,1.5,5.4,4.9,5.4s4.8-1.6,4.9-5.2V0.3H215.8z"/>
				<path d="M89.2,16.2"/>
				<path d="M96.5,21.8"/>
			</g>
		</symbol>

		<symbol id="icon-caret-skinny" viewBox="0 0 32 32">
			<g transform="matrix(1,0,0,1,-0.0563492,1.44365)">
				<path d="M16.056,4L31.613,19.556L28.056,23.113L16.056,11.113L4.056,23.113L0.5,19.556L16.056,4Z"/>
			</g>			
		</symbol>

		<symbol id="icon-caret-chunky" viewBox="0 0 32 32">
			<g transform="matrix(0.707107,-0.707107,0.707107,0.707107,-4.5061,18.8492)">
				<path d="M25,26L17,26L17,12L3,12L3,4L25,4L25,26Z"/>
			</g>			
		</symbol>

		<symbol id="icon-hamburger" viewBox="0 0 32 32">
			<rect class="icon-hamburger__top" x="2" y="22" width="28" height="4"/>
			<rect class="icon-hamburger__middle" x="2" y="14" width="28" height="4"/>
			<rect class="icon-hamburger__bottom" x="2" y="6" width="28" height="4"/>	
		</symbol>

		<symbol id="icon-exMark" viewBox="0 0 32 32">
			<g transform="matrix(0.810426,0.810426,-1.21218,1.21218,8.79106,-2.72468)">
			<rect x="3" y="3" width="26" height="3.5"/>
			</g>
			<g transform="matrix(-0.810426,0.810426,-1.21218,-1.21218,34.7247,8.79106)">
			<rect x="3" y="3" width="26" height="3.5"/>
			</g>
		</symbol>

		<symbol id="icon-leave" viewBox="0 0 16 16">
			<polygon points="12,9 12,12 4,12 4,4 7,4 7,2 2,2 2,14 14,14 14,9 	"/>
			<polygon points="9,0 9,2 12.6,2 6.2,8.4 7.6,9.8 14,3.4 14,7 16,7 16,0 	"/>
		</symbol>

		<symbol id="icon-atsign" viewBox="0 0 16 16">
			<path d="M7.4,16c1.4,0,2.5-0.2,3.7-0.6c0.3-0.1,0.5-0.5,0.4-0.8l-0.1-0.2c-0.1-0.3-0.4-0.4-0.7-0.3c-0.8,0.3-1.8,0.5-2.8,0.5
		c-3.4,0-5.9-2.2-5.9-6c0-4.4,3.1-7.1,6.6-7.1c3.6,0,5.5,2.3,5.5,5.3c0,2.6-1.2,3.9-2.2,3.9c-0.6,0-0.8-0.6-0.6-2L12,4.3
		C11.4,4,10.2,3.8,9.2,3.8c-3.3,0-5.4,2.6-5.4,5.4c0,1.9,1.1,3,2.6,3c1.2,0,2.3-0.6,3-1.8l0,0c0.1,1.2,0.9,1.8,2,1.8
		c2.5,0,4.4-2.1,4.4-5.5c0-3.9-2.9-6.6-6.9-6.6C3.6,0,0.2,4.1,0.2,8.8C0.2,13.3,3.6,16,7.4,16z M9.2,7.9c-0.2,1.3-1.1,2.4-2,2.4
		c-0.8,0-1.1-0.6-1.1-1.4c0-1.8,1.2-3.3,2.7-3.3c0.3,0,0.5,0,0.7,0.1L9.2,7.9z"/>
		</symbol>
	</defs>


</svg>