<!--
========================
This file contains icons
========================

on the page:

<svg><use xlink:href="<?php echo $SVG_PATH; ?>#icon-name" /></svg>

-->

<svg version="1.1" xmlns="http://www.w3.org/2000/svg" xmlns:xlink="http://www.w3.org/1999/xlink" style="display:none;">

	<defs>
		<symbol id="icon-linkedin" viewBox="0 0 24 24">
			<path d="M12,2c5.5,0,10,4.5,10,10s-4.5,10-10,10S2,17.5,2,12S6.5,2,12,2z M12,0C5.4,0,0,5.4,0,12s5.4,12,12,12s12-5.4,12-12
	S18.6,0,12,0z"/>
			<ellipse cx="8.2" cy="6.7" rx="1.2" ry="1.2"/>
			<rect x="6.9" y="9.2" width="2.5" height="7.4"/>
			<path d="M13.1,9.2h-2.5v7.4h2.5v-3.5c0-2.1,2.5-2.3,2.5,0v3.5h2.5v-4.1c0-4.1-3.9-3.9-4.9-1.9C13.1,10.6,13.1,9.2,13.1,9.2z"/>
		</symbol>

		<symbol id="icon-instagram" viewBox="0 0 24 24">
			<path d="M12,2c5.5,0,10,4.5,10,10s-4.5,10-10,10S2,17.5,2,12S6.5,2,12,2z M12,0C5.4,0,0,5.4,0,12s5.4,12,12,12s12-5.4,12-12
				S18.6,0,12,0z"/>
			<circle cx="15.4" cy="8.6" r="0.8"/>
			<path d="M12.1,8.6c-1.8,0-3.3,1.5-3.3,3.3s1.5,3.3,3.3,3.3s3.3-1.5,3.3-3.3S13.9,8.6,12.1,8.6z M12.1,14.1c-1.2,0-2.1-1-2.1-2.1
				c0-1.2,1-2.1,2.1-2.1c1.2,0,2.1,1,2.1,2.1C14.2,13.1,13.2,14.1,12.1,14.1z"/>
			<path d="M14.9,5.6H9.2c-2,0-3.6,1.6-3.6,3.6v5.7c0,2,1.6,3.6,3.6,3.6h5.7c2,0,3.6-1.6,3.6-3.6V9.1C18.4,7.1,16.8,5.6,14.9,5.6z
					M17.2,14.8c0,1.3-1.1,2.4-2.4,2.4H9.2c-1.3,0-2.4-1.1-2.4-2.4V9.1c0-1.3,1.1-2.4,2.4-2.4h5.6c1.3,0,2.4,1.1,2.4,2.4
				C17.2,9.1,17.2,14.8,17.2,14.8z"/>
		</symbol>

		<symbol id="icon-codepen" viewBox="0 0 24 24">
			<path d="M12,2c5.51,0,10,4.49,10,10s-4.49,10-10,10S2,17.51,2,12S6.49,2,12,2z M12,0C5.37,0,0,5.37,0,12s5.37,12,12,12
			s12-5.37,12-12S18.63,0,12,0z"/>
			<path d="M18.84,9.29l-5.87-3.9c0,0,0,0,0,0L12.38,5c-0.23-0.15-0.53-0.15-0.75,0l-0.59,0.39c0,0,0,0,0,0l-5.87,3.9
			C4.99,9.4,4.88,9.6,4.88,9.8v0.04v4.28v0.04c0,0.21,0.1,0.4,0.28,0.52l5,3.32l0,0l1.46,0.97c0.23,0.15,0.53,0.15,0.75,0l1.46-0.97
			l0,0l5-3.32c0.17-0.12,0.28-0.31,0.28-0.52v-0.04V9.85V9.8C19.12,9.6,19.01,9.4,18.84,9.29z M12,10.56l2.15,1.43L12,13.41
			l-2.15-1.43L12,10.56z M12.65,9.52V6.71l4.71,3.14l-2.11,1.4L12.65,9.52z M11.35,6.71v2.81l-2.6,1.73l-2.11-1.4L11.35,6.71z
			M6.13,10.98l1.51,1.01l-1.51,1.01V10.98z M8.75,12.72l2.6,1.73v2.81l-4.71-3.14L8.75,12.72z M12.65,17.26v-2.81l2.6-1.73l2.11,1.4
			L12.65,17.26z M17.87,12.99l-1.51-1.01l1.51-1.01V12.99z"/>
		</symbol>

		<symbol id="icon-github" viewBox="0 0 24 24">
			<path d="M12,2c5.5,0,10,4.5,10,10s-4.5,10-10,10S2,17.5,2,12S6.5,2,12,2z M12,0C5.4,0,0,5.4,0,12s5.4,12,12,12s12-5.4,12-12
				S18.6,0,12,0z"/>
			<path d="M16.8,8.3c0.1-1.5,0-2.5-0.8-2.5s-1.8,0.5-2.1,0.8c-0.4-0.2-1.8-0.2-1.8-0.2s-1.4,0-1.8,0.2C10,6.3,9,5.8,8.2,5.8
				s-0.9,1-0.8,2.5c0.1,0.3-0.9,1.2-0.7,2.6c0.1,1.3,0.3,3.7,3.1,4.2c0,0-0.1,0.5-0.1,0.7V16c-0.1,0.1-0.3,0.1-0.7,0.1
				c-1.1,0-1.9-1.1-2.1-1.3c-0.5-0.4-0.9-0.6-1-0.6H5.8c-0.3,0-0.6,0.3-0.6,0.6s0.2,0.5,0.4,0.6c0.2,0.1,0.5,0.3,0.9,0.7
				c1.2,1.3,2.8,1.2,3.2,1.2v0.4c0,0.3,0.3,0.6,0.6,0.6s0.6-0.3,0.6-0.6v-1.9c0-0.1,0.1-0.6,0.2-0.7c0.1-0.1,0.3-0.4,0.2-0.7
				c-0.1-0.5-0.6-0.5-0.8-0.5c-0.4-0.1-2.5-0.1-2.6-3.2c0.1-1.3,0.5-1.2,0.7-2c0.2-0.6-0.1-0.9,0-1.6C9.3,7.3,9.7,7.7,10,7.8
				c0.3,0.2,0.9-0.2,2.1-0.2s1.8,0.4,2.1,0.2c0.3-0.1,0.7-0.5,1.4-0.7c0.1,0.7-0.2,1,0,1.6c0.2,0.8,0.6,0.7,0.7,2
				c-0.1,3.1-2.2,3.1-2.6,3.2c-0.2,0-0.7,0-0.8,0.5c-0.1,0.3,0.1,0.6,0.2,0.7c0.1,0.1,0.2,0.6,0.2,0.7v1.9c0,0.3,0.3,0.6,0.6,0.6
				s0.6-0.3,0.6-0.6v-1.9c0-0.2-0.1-0.7-0.1-0.7c2.8-0.5,3-2.9,3.1-4.2C17.7,9.5,16.7,8.6,16.8,8.3z"/>
		</symbol>

		<symbol id="icon-logo" viewBox="0 0 236 36">
			<path d="M13,20H8c-5,0-8-3-8-8c0-0.98,0-2,0-2s0-0.96,0-2c0-5.04,3.01-8,8-8c5,0,8,3,8,8h-3c0-3-2-5-5-5S3,5,3,8c0,1,0,2,0,2
			s0,1,0,2c0,3,2,5,5,5h5v-5h3v5h5v3h-5v11c0,1,1,2,2,2h4l2,3h-6.03C15,36,13,34,13,31V20z"/>
			<g transform="matrix(0.604435,0,0,0.604435,-78.9266,-102.431)">
			<path d="M130.58,200.9l4.96,3.31l0.02,19.83l11.56,0.02l3.31,4.96h-19.85V200.9z"/>
			</g>
			<g transform="matrix(0.604435,0,0,0.604435,-78.9266,-102.431)">
			<path d="M176.9,169.47v59.56h-4.96v-54.6h-11.58l-3.31-4.96H176.9z"/>
			</g>
			<path d="M48.75,22.33l0.04,0.09c-0.01,2.2-0.6,3.9-1.76,5.11c-1.16,1.21-2.8,1.81-4.92,1.81c-2.16,0-3.89-0.73-5.18-2.18
			C35.65,25.71,35,23.68,35,21.07v-6.12c0-2.6,0.64-4.64,1.92-6.1c1.28-1.46,2.98-2.2,5.11-2.2c2.16,0,3.82,0.59,4.98,1.77
			c1.16,1.18,1.76,2.91,1.79,5.18l-0.04,0.09h-2.91c-0.03-1.62-0.35-2.8-0.95-3.57c-0.61-0.76-1.56-1.14-2.86-1.14
			c-1.26,0-2.24,0.51-2.94,1.53s-1.04,2.48-1.04,4.37v6.17c0,1.92,0.36,3.39,1.07,4.41c0.71,1.02,1.71,1.53,3.01,1.53
			c1.27,0,2.2-0.37,2.79-1.11c0.59-0.74,0.9-1.93,0.92-3.57H48.75z"/>
			<path d="M62.15,23.45h-7.02l-1.61,5.57H50.4l6.78-22.04h2.97l6.72,22.04h-3.12L62.15,23.45z M55.83,21.01h5.62l-2.76-9.63H58.6
			L55.83,21.01z"/>
			<path d="M72.61,29.02h-3.06V6.98h3.06V29.02z"/>
			<path d="M89.43,9.31h-5.66v19.71h-3.07V9.31h-5.63V6.98h14.37V9.31z"/>
			<path d="M95.15,26.69h8.6v2.33H92.08V6.98h3.07V26.69z"/>
			<path d="M109.75,29.02h-3.06V6.98h3.06V29.02z"/>
			<path d="M128.82,29.02h-3.06l-8.36-16.4l-0.09,0.03v16.37h-3.07V6.98h3.07l8.36,16.35l0.09-0.03V6.98h3.06V29.02z"/>
			<path d="M152.64,9.31h-5.66v19.71h-3.07V9.31h-5.63V6.98h14.37V9.31z"/>
			<path d="M166.54,18.77h-8.18v7.92h9.48v2.33h-12.55V6.98h12.46v2.33h-9.39v7.13h8.18V18.77z"/>
			<path d="M180.72,23.45h-7.02l-1.61,5.57h-3.12l6.78-22.04h2.97l6.72,22.04h-3.12L180.72,23.45z M174.41,21.01h5.62l-2.76-9.63
			h-0.09L174.41,21.01z"/>
			<path d="M201.68,25.89c-0.51,0.89-1.33,1.69-2.46,2.39c-1.14,0.71-2.59,1.06-4.35,1.06c-2.31,0-4.17-0.7-5.59-2.1
			c-1.41-1.4-2.12-3.4-2.12-6V14.7c0-2.55,0.67-4.53,2.01-5.94s3.12-2.1,5.34-2.1c2.25,0,3.97,0.57,5.16,1.7
			c1.19,1.14,1.83,2.73,1.91,4.78l-0.03,0.09h-2.91c-0.05-1.38-0.41-2.43-1.08-3.16c-0.67-0.72-1.67-1.08-3-1.08
			c-1.34,0-2.4,0.48-3.18,1.45s-1.17,2.37-1.17,4.21v6.58c0,1.88,0.42,3.31,1.25,4.3c0.83,0.99,1.97,1.48,3.4,1.48
			c1.05,0,1.86-0.18,2.45-0.54c0.58-0.36,1.01-0.81,1.29-1.37v-5.01h-3.77v-2.23h6.84V25.89z"/>
			<path d="M219.57,6.98v15.28c0,2.28-0.65,4.03-1.96,5.25c-1.31,1.22-3.02,1.83-5.13,1.83c-2.08,0-3.76-0.61-5.04-1.83
			c-1.28-1.22-1.92-2.97-1.92-5.25V6.98h3.04v15.28c0,1.57,0.35,2.76,1.06,3.56c0.71,0.8,1.66,1.2,2.86,1.2
			c1.25,0,2.24-0.38,2.95-1.15c0.72-0.77,1.07-1.97,1.07-3.6V6.98H219.57z"/>
			<path d="M234.7,18.77h-8.18v7.92H236v2.33h-12.55V6.98h12.46v2.33h-9.39v7.13h8.18V18.77z"/>
		</symbol>

		<symbol id="icon-logo-2020" viewBox="0 0 747 100">
			<path d="M63,80.97c-3.31,0-6-2.69-6-6v-20h10v-6H57v-6h-6v6H37c-7.73,0-14-6.27-14-14s6.27-14,14-14s14,6.27,14,14h6
				c0-11.05-8.95-20-20-20s-20,8.95-20,20s8.95,20,20,20h14v20c0,6.63,5.37,12,12,12h20v-6H63z"/>
			<polygon points="54,15.97 58,21.97 83,21.97 83,86.97 89,86.97 89,15.97 "/>
			<polygon points="46,80.97 24,80.97 24,56.97 18,51.97 18,86.97 50,86.97 "/>
			<path d="M157.06,64.24l0.14,0.28c-0.03,6.75-1.83,11.96-5.38,15.66c-3.56,3.7-8.58,5.54-15.08,5.54
				c-6.62,0-11.91-2.23-15.87-6.68s-5.94-10.67-5.94-18.65V41.65c0-7.98,1.96-14.21,5.87-18.7s9.13-6.73,15.66-6.73
				c6.62,0,11.71,1.81,15.27,5.43s5.38,8.91,5.48,15.87l-0.14,0.28h-8.91c-0.09-4.95-1.07-8.59-2.92-10.93
				c-1.86-2.33-4.78-3.5-8.77-3.5c-3.87,0-6.87,1.57-9,4.69c-2.13,3.13-3.2,7.59-3.2,13.39v18.92c0,5.89,1.09,10.4,3.27,13.53
				s5.25,4.69,9.21,4.69c3.9,0,6.75-1.14,8.56-3.41c1.81-2.27,2.74-5.92,2.81-10.93h8.94V64.24z"/>
			<path d="M198.12,67.68h-21.53l-4.92,17.08h-9.56L182.9,17.2h9.1l20.6,67.56h-9.56L198.12,67.68z M178.78,60.21H196
				l-8.45-29.51h-0.28L178.78,60.21z"/>
			<path d="M230.19,84.75h-9.37V17.19h9.37V84.75z"/>
			<path d="M281.75,24.34H264.4v60.42h-9.42V24.34h-17.26v-7.15h44.04v7.15H281.75z"/>
			<path d="M299.29,77.61h26.36v7.15h-35.78V17.19h9.42L299.29,77.61L299.29,77.61z"/>
			<path d="M342.02,84.75h-9.37V17.19h9.37V84.75z"/>
			<path d="M400.49,84.75h-9.37L365.5,34.5l-0.28,0.09v50.16h-9.42V17.19h9.42l25.62,50.12l0.28-0.09V17.19h9.37V84.75z"/>
			<path d="M472.48,24.34h-17.35v60.42h-9.42V24.34h-17.26v-7.15h44.04L472.48,24.34L472.48,24.34z"/>
			<path d="M515.08,53.34h-25.06v24.27h29.05v7.15H480.6V17.19h38.19v7.15h-28.77V46.2h25.06V53.34z"/>
			<path d="M558.56,67.68h-21.53l-4.92,17.08h-9.56l20.79-67.56h9.09l20.6,67.56h-9.56L558.56,67.68z M539.21,60.21h17.22
				l-8.45-29.51h-0.28L539.21,60.21z"/>
			<path d="M620.78,75.15c-1.55,2.72-4.06,5.17-7.54,7.33c-3.48,2.17-7.93,3.25-13.34,3.25c-7.08,0-12.79-2.15-17.12-6.45
				s-6.5-10.42-6.5-18.38V40.86c0-7.83,2.06-13.89,6.17-18.19s9.57-6.45,16.38-6.45c6.9,0,12.17,1.74,15.82,5.22s5.6,8.36,5.85,14.64
				l-0.09,0.28h-8.91c-0.15-4.24-1.26-7.46-3.32-9.67s-5.13-3.32-9.21-3.32c-4.12,0-7.36,1.48-9.75,4.44
				c-2.38,2.96-3.57,7.26-3.57,12.9v20.17c0,5.76,1.28,10.16,3.83,13.18c2.55,3.02,6.03,4.53,10.42,4.53c3.22,0,5.71-0.55,7.49-1.65
				c1.78-1.1,3.1-2.5,3.97-4.2V57.38h-11.55v-6.82h20.97L620.78,75.15L620.78,75.15z"/>
			<path d="M674.63,17.19v46.82c0,6.99-2,12.36-6.01,16.1s-9.24,5.62-15.71,5.62c-6.37,0-11.52-1.87-15.45-5.62
				c-3.93-3.74-5.89-9.11-5.89-16.1V17.19h9.33v46.82c0,4.83,1.08,8.46,3.25,10.9s5.09,3.67,8.77,3.67c3.83,0,6.85-1.17,9.05-3.53
				c2.2-2.35,3.29-6.03,3.29-11.04V17.19H674.63z"/>
			<path d="M720.99,53.34h-25.06v24.27h29.05v7.15h-38.47V17.19h38.19v7.15h-28.77V46.2h25.06V53.34z"/>
		</symbol>

		<symbol id="icon-logo-2021" viewBox="0 0 747 100">
			<g class="mark">
				<path d="M63,81c-3.3,0-6-2.7-6-6V55h10v-6H57v-6h-6v6H37c-7.7,0-14-6.3-14-14s6.3-14,14-14s14,6.3,14,14h6
				c0-11-9-20-20-20s-20,9-20,20s9,20,20,20h14v20c0,6.6,5.4,12,12,12h20v-6H63z"/>
				<polygon points="54,16 58,22 83,22 83,87 89,87 89,16 "/>
				<polygon points="46,81 24,81 24,57 18,52 18,87 50,87 "/>
			</g>
			<g class="word">
				<path class="st1" d="M164.7,64.9c-0.5,7.9-2.7,13.8-6.4,17.5c-3.8,3.7-9,5.6-15.6,5.6c-6.8,0-12.2-2.6-16.2-7.8
				c-4-5.2-6-12.2-6-21.1V43.8c0-8.9,2-15.9,6.1-21c4-5.1,9.6-7.6,16.6-7.6c6.6,0,11.7,1.9,15.4,5.7c3.6,3.8,5.7,9.6,6.2,17.5h-5.6
				c-0.5-6.4-2-11-4.5-13.8c-2.5-2.8-6.3-4.1-11.4-4.1c-5.4,0-9.5,2-12.5,6c-3,4-4.5,9.8-4.5,17.4V59c0,7.5,1.4,13.4,4.3,17.6
				c2.9,4.2,7,6.3,12.2,6.3c5.5,0,9.5-1.4,12-4.1c2.5-2.8,3.9-7.3,4.4-13.8H164.7z"/>
				<path class="st1" d="M207.3,67.2h-26.6l-6,19.8h-5.8l22.6-70.8h5.2L219.2,87h-5.8L207.3,67.2z M182.3,62h23.3L194,24L182.3,62z"/>
				<path class="st1" d="M233.4,87h-5.5V16.2h5.5V87z"/>
				<path class="st1" d="M288.3,21.5h-20.1V87h-5.6V21.5h-20.1v-5.3h45.8V21.5z"/>
				<path class="st1" d="M302.6,81.9h29.2V87H297V16.2h5.6V81.9z"/>
				<path class="st1" d="M346.4,87h-5.5V16.2h5.5V87z"/>
				<path class="st1" d="M403.9,87h-5.5L365,26.7V87h-5.6V16.2h5.6l33.5,60.4V16.2h5.5V87z"/>
				<path class="st1" d="M479.1,21.5h-20.1V87h-5.6V21.5h-20.1v-5.3h45.8V21.5z"/>
				<path class="st1" d="M520.7,53.1h-27.5v28.7h31.6V87h-37.2V16.2h36.9v5.3h-31.4V48h27.5V53.1z"/>
				<path class="st1" d="M569.6,67.2h-26.6L537,87h-5.8l22.6-70.8h5.2L581.5,87h-5.8L569.6,67.2z M544.7,62H568l-11.7-38L544.7,62z"/>
				<path class="st1" d="M630.4,78.8c-2.4,3-5.4,5.3-9,6.9c-3.6,1.5-7.5,2.3-11.8,2.3c-7.3,0-13-2.4-17.1-7.3
				c-4.2-4.9-6.3-11.6-6.5-20.2V43.3c0-9,2-16,5.9-20.8c3.9-4.8,9.6-7.2,16.9-7.2c6.5,0,11.6,1.8,15.3,5.4s5.8,8.8,6.2,15.6h-5.5
				c-0.6-5.4-2.2-9.4-4.8-11.9c-2.6-2.5-6.3-3.8-11.2-3.8c-5.8,0-10.1,1.9-13,5.8c-2.9,3.8-4.3,9.5-4.3,16.9v16.3
				c0,7.4,1.6,13.1,4.7,17.2c3.2,4.1,7.6,6.1,13.3,6.1c6.2,0,11.3-2,15.2-5.9V58.5h-15.5v-5.2h21.1V78.8z"/>
				<path class="st1" d="M683.1,16.2v50.2c0,6.8-1.9,12.1-5.5,15.9c-3.6,3.8-8.8,5.6-15.5,5.6c-6.8,0-12-1.9-15.6-5.6
				c-3.6-3.7-5.4-9.1-5.4-16.2V16.2h5.5v49.9c0,11.2,5.2,16.8,15.5,16.8c10.2,0,15.3-5.4,15.5-16.3V16.2H683.1z"/>
				<path class="st1" d="M728,53.1h-27.5v28.7h31.6V87H695V16.2h36.9v5.3h-31.4V48H728V53.1z"/>
			</g>
		</symbol>

		<!-- arrows -->
		<symbol id="icon-caret-skinny" viewBox="0 0 32 32">
			<g transform="matrix(1,0,0,1,-0.0563492,1.44365)">
				<path d="M16.056,4L31.613,19.556L28.056,23.113L16.056,11.113L4.056,23.113L0.5,19.556L16.056,4Z"/>
			</g>			
		</symbol>

		<symbol id="icon-caret-chunky" viewBox="0 0 32 32">
			<g transform="matrix(0.707107,-0.707107,0.707107,0.707107,-4.5061,18.8492)">
				<path d="M25,26L17,26L17,12L3,12L3,4L25,4L25,26Z"/>
			</g>			
		</symbol>

		<!-- system icons -->
		<symbol id="icon-hamburger" viewBox="0 0 32 32">
			<rect class="icon-hamburger__top" x="2" y="22" width="28" height="4"/>
			<rect class="icon-hamburger__middle" x="2" y="14" width="28" height="4"/>
			<rect class="icon-hamburger__bottom" x="2" y="6" width="28" height="4"/>	
		</symbol>

		<symbol id="icon-exMark" viewBox="0 0 32 32">
			<g transform="matrix(0.810426,0.810426,-1.21218,1.21218,8.79106,-2.72468)">
			<rect x="3" y="3" width="26" height="3.5"/>
			</g>
			<g transform="matrix(-0.810426,0.810426,-1.21218,-1.21218,34.7247,8.79106)">
			<rect x="3" y="3" width="26" height="3.5"/>
			</g>
		</symbol>

		<symbol id="icon-externalLink" viewBox="0 0 32 32">
			<polygon points="23,19 23,25 7,25 7,9 13,9 13,5 3,5 3,29 27,29 27,19 "/>
			<polygon points="17,2 17,7 22.5,7 11,18.5 13.5,21 25,9.5 25,15 30,15 30,2 "/>
		</symbol>
	</defs>


</svg>