<?xml version="1.0" encoding="UTF-8" standalone="no"?><!DOCTYPE svg PUBLIC "-//W3C//DTD SVG 1.1//EN" "http://www.w3.org/Graphics/SVG/1.1/DTD/svg11.dtd"><svg width="100%" height="100%" viewBox="0 0 550 286" version="1.1" xmlns="http://www.w3.org/2000/svg" xmlns:xlink="http://www.w3.org/1999/xlink" xml:space="preserve" xmlns:serif="http://www.serif.com/" style="fill-rule:evenodd;clip-rule:evenodd;stroke-linejoin:round;stroke-miterlimit:2;"><g id="Line-v2" serif:id="Line v2"><g opacity="0.4"><path d="M318.75,42.75l-19.5,-0l0,-17l-4.5,-0l0,17l-19.5,-0l0,-17l-4.5,0l0,17l-19.5,-0l0,-17l-4.5,-0l0,17l-19.5,-0l0,-17l-4.5,-0l0,17l-19.5,-0l0,-25l-4.5,-0l0,25l-19.5,-0l0,-17l-4.5,-0l0,17l-19.5,-0l0,-32l-4.5,-0l0,32l-19.96,-0l-0,-17l-4.5,-0l-0,17l-19.5,-0l-0,-9l-4.5,0l-0,9l-9.446,-0l-0,4.5l9.446,-0l-0,19.5l-19.5,-0l-0,-14l-4.5,0l-0,14l-19.5,-0l-0,-14l-4.5,-0l-0,14l-16.54,-0l-0,4.5l16.54,-0l-0,19.776l-38.54,0l0,4.5l38.54,0l-0,19.5l-19.5,0l-0,-13.276l-4.5,0l-0,13.276l-30.29,0l0,4.5l30.29,0l-0,19.5l-14.54,0l-0,4.5l14.54,0l-0,19.5l-14.54,0l-0,4.5l14.54,0l-0,12.724l4.5,0l-0,-12.724l19.5,0l-0,19.776l-38.54,0l0,4.5l38.54,0l-0,19.5l-16.54,0l0,4.5l16.54,0l-0,16.448l4.5,-0l-0,-16.448l19.5,0l-0,16.448l4.5,0l-0,-16.448l19.5,0l-0,19.5l-9.446,0l-0,4.5l9.446,0l-0,11.448l4.5,0l-0,-11.448l19.5,0l-0,18.448l4.5,-0l-0,-18.448l19.96,0l0,18.448l4.5,-0l0,-18.448l19.5,0l0,18.448l4.5,-0l0,-18.448l19.5,0l0,31.448l4.5,-0l0,-31.448l19.5,0l0,18.448l4.5,-0l0,-18.448l19.5,0l0,18.448l4.5,-0l0,-18.448l19.5,0l0,18.448l4.5,0l0,-18.448l19.5,0l0,26.448l4.5,-0l0,-26.448l19.5,0l0,18.448l4.5,-0l0,-18.448l19.485,0l-0,18.448l4.5,-0l-0,-18.448l19.5,0l-0,18.448l4.5,-0l-0,-18.448l19.515,0l-0,31.448l4.5,0l-0,-31.448l19.5,0l-0,46.198l4.5,0l-0,-46.198l19.5,0l0,18.448l4.5,0l0,-18.448l19.5,0l0,18.448l4.5,-0l0,-18.448l19.5,0l0,18.448l4.5,-0l0,-18.448l15,0l-0,-4.5l-15,0l0,-19.5l19.5,0l0,13.448l4.5,-0l0,-13.448l14,0l0,-4.5l-14,0l0,-19.5l14,0l0,-4.5l-14,0l0,-19.776l28,0l-0,-4.5l-28,0l0,-19.5l14,0l-0,-4.5l-14,0l0,-19.5l14,0l0,-4.5l-14,0l0,-19.5l34.75,0l0,-4.5l-34.75,0l0,-19.776l14,-0l-0,-4.5l-14,-0l0,-14l-4.5,-0l0,14l-19.5,-0l0,-19.5l15,-0l-0,-4.5l-15,-0l0,-17l-4.5,-0l0,17l-19.5,-0l0,-17l-4.5,-0l0,17l-19.5,-0l0,-25l-4.5,0l0,25l-19.5,-0l-0,-17l-4.5,0l-0,17l-19.5,-0l-0,-17l-4.5,0l-0,17l-19.515,-0l-0,-17l-4.5,-0l-0,17l-19.5,-0l-0,-25l-4.5,-0l-0,25l-19.485,-0l0,-42.75l-4.5,0l0,42.75Zm-211.96,173.052l-0,19.5l19.5,0l-0,-19.5l-19.5,0Zm24,0l-0,19.5l19.96,0l0,-19.5l-19.96,0Zm24.46,0l0,19.5l19.5,0l0,-19.5l-19.5,0Zm24,0l0,19.5l19.5,0l0,-19.5l-19.5,0Zm24,0l0,19.5l19.5,0l0,-19.5l-19.5,0Zm24,0l0,19.5l19.5,0l0,-19.5l-19.5,0Zm24,0l0,19.5l19.5,0l0,-19.5l-19.5,0Zm24,0l0,19.5l19.5,0l0,-19.5l-19.5,0Zm24,0l0,19.5l19.5,0l0,-19.5l-19.5,0Zm24,0l0,19.5l19.485,0l-0,-19.5l-19.485,0Zm23.985,0l-0,19.5l19.5,0l-0,-19.5l-19.5,0Zm24,0l-0,19.5l19.515,0l-0,-19.5l-19.515,0Zm24.015,0l-0,19.5l19.5,0l-0,-19.5l-19.5,0Zm24,0l-0,19.5l19.5,0l0,-19.5l-19.5,0Zm24,0l0,19.5l19.5,0l0,-19.5l-19.5,0Zm24,0l0,19.5l19.5,0l0,-19.5l-19.5,0Zm-408.46,-24l-0,19.5l19.5,0l-0,-19.5l-19.5,0Zm24,0l-0,19.5l19.5,0l-0,-19.5l-19.5,0Zm24,0l-0,19.5l19.5,0l-0,-19.5l-19.5,0Zm24,0l-0,19.5l19.96,0l0,-19.5l-19.96,0Zm24.46,0l0,19.5l19.5,0l0,-19.5l-19.5,0Zm24,0l0,19.5l19.5,0l0,-19.5l-19.5,0Zm24,0l0,19.5l19.5,0l0,-19.5l-19.5,0Zm24,0l0,19.5l19.5,0l0,-19.5l-19.5,0Zm24,0l0,19.5l19.5,0l0,-19.5l-19.5,0Zm24,0l0,19.5l19.5,0l0,-19.5l-19.5,0Zm24,0l0,19.5l19.5,0l0,-19.5l-19.5,0Zm24,0l0,19.5l19.485,0l-0,-19.5l-19.485,0Zm23.985,0l-0,19.5l19.5,0l-0,-19.5l-19.5,0Zm24,0l-0,19.5l19.515,0l-0,-19.5l-19.515,0Zm24.015,0l-0,19.5l19.5,0l-0,-19.5l-19.5,0Zm24,0l-0,19.5l19.5,0l0,-19.5l-19.5,0Zm24,0l0,19.5l19.5,0l0,-19.5l-19.5,0Zm24,0l0,19.5l19.5,0l0,-19.5l-19.5,0Zm24,0l0,19.5l19.5,0l0,-19.5l-19.5,0Zm-432.46,-24.276l-0,19.776l19.5,0l-0,-19.776l-19.5,0Zm24,0l-0,19.776l19.5,0l-0,-19.776l-19.5,0Zm24,0l-0,19.776l19.5,0l-0,-19.776l-19.5,0Zm24,0l-0,19.776l19.96,0l0,-19.776l-19.96,0Zm24.46,0l0,19.776l19.5,0l0,-19.776l-19.5,0Zm24,0l0,19.776l19.5,0l0,-19.776l-19.5,0Zm24,0l0,19.776l19.5,0l0,-19.776l-19.5,0Zm24,0l0,19.776l19.5,0l0,-19.776l-19.5,0Zm24,0l0,19.776l19.5,0l0,-19.776l-19.5,0Zm24,0l0,19.776l19.5,0l0,-19.776l-19.5,0Zm24,0l0,19.776l19.5,0l0,-19.776l-19.5,0Zm24,0l0,19.776l19.485,0l-0,-19.776l-19.485,0Zm23.985,0l-0,19.776l19.5,0l-0,-19.776l-19.5,0Zm24,0l-0,19.776l19.515,0l-0,-19.776l-19.515,0Zm24.015,0l-0,19.776l19.5,0l-0,-19.776l-19.5,0Zm24,0l-0,19.776l19.5,0l0,-19.776l-19.5,0Zm24,0l0,19.776l19.5,0l0,-19.776l-19.5,0Zm24,0l0,19.776l19.5,0l0,-19.776l-19.5,0Zm24,0l0,19.776l19.5,0l0,-19.776l-19.5,0Zm-456.46,-24l-0,19.5l19.5,0l-0,-19.5l-19.5,0Zm24,0l-0,19.5l19.5,0l-0,-19.5l-19.5,0Zm24,0l-0,19.5l19.5,0l-0,-19.5l-19.5,0Zm24,0l-0,19.5l19.5,0l-0,-19.5l-19.5,0Zm24,0l-0,19.5l19.96,0l0,-19.5l-19.96,0Zm24.46,0l0,19.5l19.5,0l0,-19.5l-19.5,0Zm24,0l0,19.5l19.5,0l0,-19.5l-19.5,0Zm24,0l0,19.5l19.5,0l0,-19.5l-19.5,0Zm24,0l0,19.5l19.5,0l0,-19.5l-19.5,0Zm24,0l0,19.5l19.5,0l0,-19.5l-19.5,0Zm24,0l0,19.5l19.5,0l0,-19.5l-19.5,0Zm24,0l0,19.5l19.5,0l0,-19.5l-19.5,0Zm24,0l0,19.5l19.485,0l-0,-19.5l-19.485,0Zm23.985,0l-0,19.5l19.5,0l-0,-19.5l-19.5,0Zm24,0l-0,19.5l19.515,0l-0,-19.5l-19.515,0Zm24.015,0l-0,19.5l19.5,0l-0,-19.5l-19.5,0Zm24,0l-0,19.5l19.5,0l0,-19.5l-19.5,0Zm24,0l0,19.5l19.5,0l0,-19.5l-19.5,0Zm24,0l0,19.5l19.5,0l0,-19.5l-19.5,0Zm24,0l0,19.5l19.5,0l0,-19.5l-19.5,0Zm-456.46,-24l-0,19.5l19.5,0l-0,-19.5l-19.5,0Zm24,0l-0,19.5l19.5,0l-0,-19.5l-19.5,0Zm24,0l-0,19.5l19.5,0l-0,-19.5l-19.5,0Zm24,0l-0,19.5l19.5,0l-0,-19.5l-19.5,0Zm24,0l-0,19.5l19.96,0l0,-19.5l-19.96,0Zm24.46,0l0,19.5l19.5,0l0,-19.5l-19.5,0Zm24,0l0,19.5l19.5,0l0,-19.5l-19.5,0Zm24,0l0,19.5l19.5,0l0,-19.5l-19.5,0Zm24,0l0,19.5l19.5,0l0,-19.5l-19.5,0Zm24,0l0,19.5l19.5,0l0,-19.5l-19.5,0Zm24,0l0,19.5l19.5,0l0,-19.5l-19.5,0Zm24,0l0,19.5l19.5,0l0,-19.5l-19.5,0Zm24,0l0,19.5l19.485,0l-0,-19.5l-19.485,0Zm23.985,0l-0,19.5l19.5,0l-0,-19.5l-19.5,0Zm24,0l-0,19.5l19.515,0l-0,-19.5l-19.515,0Zm24.015,0l-0,19.5l19.5,0l-0,-19.5l-19.5,0Zm24,0l-0,19.5l19.5,0l0,-19.5l-19.5,0Zm24,0l0,19.5l19.5,0l0,-19.5l-19.5,0Zm24,0l0,19.5l19.5,0l0,-19.5l-19.5,0Zm24,0l0,19.5l19.5,0l0,-19.5l-19.5,0Zm-432.46,-24l-0,19.5l19.5,0l-0,-19.5l-19.5,0Zm24,0l-0,19.5l19.5,0l-0,-19.5l-19.5,0Zm24,0l-0,19.5l19.5,0l-0,-19.5l-19.5,0Zm24,0l-0,19.5l19.96,0l0,-19.5l-19.96,0Zm24.46,0l0,19.5l19.5,0l0,-19.5l-19.5,0Zm24,0l0,19.5l19.5,0l0,-19.5l-19.5,0Zm24,0l0,19.5l19.5,0l0,-19.5l-19.5,0Zm24,0l0,19.5l19.5,0l0,-19.5l-19.5,0Zm24,0l0,19.5l19.5,0l0,-19.5l-19.5,0Zm24,0l0,19.5l19.5,0l0,-19.5l-19.5,0Zm24,0l0,19.5l19.5,0l0,-19.5l-19.5,0Zm24,0l0,19.5l19.485,0l-0,-19.5l-19.485,0Zm23.985,0l-0,19.5l19.5,0l-0,-19.5l-19.5,0Zm24,0l-0,19.5l19.515,0l-0,-19.5l-19.515,0Zm24.015,0l-0,19.5l19.5,0l-0,-19.5l-19.5,0Zm24,0l-0,19.5l19.5,0l0,-19.5l-19.5,0Zm24,0l0,19.5l19.5,0l0,-19.5l-19.5,0Zm24,0l0,19.5l19.5,0l0,-19.5l-19.5,0Zm24,0l0,19.5l19.5,0l0,-19.5l-19.5,0Zm-432.46,-24.276l-0,19.776l19.5,0l-0,-19.776l-19.5,-0Zm24,-0l-0,19.776l19.5,0l-0,-19.776l-19.5,-0Zm24,-0l-0,19.776l19.5,0l-0,-19.776l-19.5,-0Zm24,-0l-0,19.776l19.96,0l0,-19.776l-19.96,-0Zm24.46,-0l0,19.776l19.5,0l0,-19.776l-19.5,-0Zm24,-0l0,19.776l19.5,0l0,-19.776l-19.5,-0Zm24,-0l0,19.776l19.5,0l0,-19.776l-19.5,-0Zm24,-0l0,19.776l19.5,0l0,-19.776l-19.5,-0Zm24,-0l0,19.776l19.5,0l0,-19.776l-19.5,-0Zm24,-0l0,19.776l19.5,0l0,-19.776l-19.5,-0Zm24,-0l0,19.776l19.5,0l0,-19.776l-19.5,-0Zm24,-0l0,19.776l19.485,0l-0,-19.776l-19.485,-0Zm23.985,-0l-0,19.776l19.5,0l-0,-19.776l-19.5,-0Zm24,-0l-0,19.776l19.515,0l-0,-19.776l-19.515,-0Zm24.015,-0l-0,19.776l19.5,0l-0,-19.776l-19.5,-0Zm24,-0l-0,19.776l19.5,0l0,-19.776l-19.5,-0Zm24,-0l0,19.776l19.5,0l0,-19.776l-19.5,-0Zm24,-0l0,19.776l19.5,0l0,-19.776l-19.5,-0Zm24,-0l0,19.776l19.5,0l0,-19.776l-19.5,-0Zm-384.46,-24l-0,19.5l19.5,-0l-0,-19.5l-19.5,-0Zm24,-0l-0,19.5l19.96,-0l0,-19.5l-19.96,-0Zm24.46,-0l0,19.5l19.5,-0l0,-19.5l-19.5,-0Zm24,-0l0,19.5l19.5,-0l0,-19.5l-19.5,-0Zm24,-0l0,19.5l19.5,-0l0,-19.5l-19.5,-0Zm24,-0l0,19.5l19.5,-0l0,-19.5l-19.5,-0Zm24,-0l0,19.5l19.5,-0l0,-19.5l-19.5,-0Zm24,-0l0,19.5l19.5,-0l0,-19.5l-19.5,-0Zm24,-0l0,19.5l19.5,-0l0,-19.5l-19.5,-0Zm24,-0l0,19.5l19.485,-0l-0,-19.5l-19.485,-0Zm23.985,-0l-0,19.5l19.5,-0l-0,-19.5l-19.5,-0Zm24,-0l-0,19.5l19.515,-0l-0,-19.5l-19.515,-0Zm24.015,-0l-0,19.5l19.5,-0l-0,-19.5l-19.5,-0Zm24,-0l-0,19.5l19.5,-0l0,-19.5l-19.5,-0Zm24,-0l0,19.5l19.5,-0l0,-19.5l-19.5,-0Zm24,-0l0,19.5l19.5,-0l0,-19.5l-19.5,-0Z" style="fill:#007b8e;"/></g><g id="Monitor"><path id="Monitor-Frame" serif:id="Monitor Frame" d="M489,50.518c0,-3.597 -2.921,-6.518 -6.518,-6.518l-322.964,-0c-3.597,-0 -6.518,2.921 -6.518,6.518l0,180.964c0,3.597 2.921,6.518 6.518,6.518l322.964,-0c3.597,-0 6.518,-2.921 6.518,-6.518l0,-180.964Zm-6,-0l0,180.964c0,0.286 -0.232,0.518 -0.518,0.518c0,-0 -322.964,-0 -322.964,-0c-0.286,-0 -0.518,-0.232 -0.518,-0.518l0,-180.964c0,-0.286 0.232,-0.518 0.518,-0.518l322.964,-0c0.286,-0 0.518,0.232 0.518,0.518Z" style="fill:#67e5e9;"/><g id="Desktop-Content" serif:id="Desktop Content"><rect x="201" y="69" width="48" height="24" style="fill:#deecf1;"/><rect x="273" y="69" width="168" height="24" style="fill:#deecf1;"/><rect x="371" y="117" width="70" height="41" style="fill:#deecf1;"/><rect x="273" y="150" width="94" height="8" style="fill:#deecf1;"/><rect x="273" y="134" width="94" height="8" style="fill:#deecf1;"/><rect x="273" y="117" width="94" height="8" style="fill:#deecf1;"/><rect x="273" y="167" width="168" height="46" style="fill:#deecf1;"/><rect x="201.276" y="117" width="48" height="96.419" style="fill:#deecf1;"/></g></g><g id="Phone"><path id="Phone-Case" serif:id="Phone Case" d="M128,75.199c0,-3.422 -2.777,-6.199 -6.199,-6.199l-59.602,-0c-3.422,-0 -6.199,2.777 -6.199,6.199l0,131.602c0,3.422 2.777,6.199 6.199,6.199l59.602,-0c3.422,-0 6.199,-2.777 6.199,-6.199l0,-131.602Zm-6,-0l0,131.602c0,0.11 -0.089,0.199 -0.199,0.199l-59.602,-0c-0.11,-0 -0.199,-0.089 -0.199,-0.199c0,0 0,-131.602 0,-131.602c0,-0.11 0.089,-0.199 0.199,-0.199l59.602,-0c0.11,-0 0.199,0.089 0.199,0.199Z" style="fill:#67e5e9;"/><rect x="68" y="82" width="48" height="24" style="fill:#deecf1;"/><rect x="68" y="150" width="48" height="8" style="fill:#deecf1;"/><rect x="68" y="134" width="48" height="8" style="fill:#deecf1;"/><rect x="68" y="118" width="48" height="8" style="fill:#deecf1;"/><rect x="68" y="166" width="48" height="34" style="fill:#deecf1;"/></g></g></svg>