<?xml version="1.0" standalone="no"?>
<!DOCTYPE svg PUBLIC "-//W3C//DTD SVG 20010904//EN"
 "http://www.w3.org/TR/2001/REC-SVG-20010904/DTD/svg10.dtd">
<svg version="1.0" xmlns="http://www.w3.org/2000/svg"
 width="288.000000pt" height="288.000000pt" viewBox="0 0 288.000000 288.000000"
 preserveAspectRatio="xMidYMid meet">
<metadata>
Created by potrace 1.11, written by Peter Selinger 2001-2013
</metadata>
<g transform="translate(0.000000,288.000000) scale(0.100000,-0.100000)"
fill="#000000" stroke="none">
<path d="M632 2864 c-246 -53 -446 -214 -558 -449 -57 -121 -74 -209 -70 -360
6 -217 75 -381 228 -537 77 -78 135 -119 236 -165 136 -63 152 -65 539 -70
l352 -5 3 -456 c3 -450 3 -458 26 -511 22 -53 72 -131 102 -162 64 -65 160
-120 240 -138 27 -6 265 -10 598 -11 l552 0 0 1420 0 1420 -701 0 -701 0 19
-29 c10 -15 45 -69 78 -120 l60 -91 503 0 502 0 0 -1181 0 -1180 -432 3 c-422
3 -434 4 -473 25 -47 25 -85 64 -111 113 -18 32 -19 68 -22 468 l-3 432 200 0
201 0 0 120 0 120 -200 0 -200 0 0 120 0 120 -120 0 -120 0 0 -121 0 -121
-337 5 c-332 4 -339 4 -403 29 -228 89 -365 272 -374 499 -11 255 128 462 372
556 57 22 84 26 177 26 91 1 121 -3 175 -22 64 -23 144 -65 166 -86 7 -6 25
-23 42 -37 92 -77 168 -231 177 -357 l3 -46 122 -3 123 -3 -6 73 c-4 40 -13
100 -22 133 -21 81 -94 228 -149 297 -103 129 -283 242 -445 278 -98 22 -256
24 -349 4z"/>
<path d="M40 702 l0 -702 640 0 640 0 -40 63 c-23 34 -58 88 -78 120 l-37 57
-442 0 -443 0 0 483 -1 482 -80 65 c-44 36 -88 72 -98 80 -9 8 -27 24 -39 34
l-22 19 0 -701z"/>
</g>
</svg>
