<?xml version="1.0" encoding="utf-8"?>
<!-- Generator: Adobe Illustrator 22.0.1, SVG Export Plug-In . SVG Version: 6.00 Build 0)  -->
<svg version="1.1" id="Layer_1" xmlns="http://www.w3.org/2000/svg" xmlns:xlink="http://www.w3.org/1999/xlink" x="0px" y="0px"
	 viewBox="0 0 18 18" style="enable-background:new 0 0 18 18;" xml:space="preserve">
<style type="text/css">
	.st0{fill:#666666;}
</style>
<path class="st0" d="M13.6,3.8h-0.9c0-0.7-0.7-1.3-1.5-1.3c-0.8,0-1.5,0.6-1.5,1.3H6.9c0-0.7-0.7-1.3-1.5-1.3
	c-0.8,0-1.5,0.6-1.5,1.3H3.1C2.5,3.8,2,4.3,2,4.9v9.5c0,0.6,0.5,1.1,1.1,1.1h10.5c0.6,0,1.1-0.5,1.1-1.1V4.9
	C14.7,4.3,14.2,3.8,13.6,3.8z M13.7,14.5H2.9V7.9h10.8C13.7,7.9,13.7,14.5,13.7,14.5z"/>
</svg>
