<svg version="1.1" xmlns="http://www.w3.org/2000/svg" xmlns:xlink="http://www.w3.org/1999/xlink" viewBox="0 0 20 20">
  <path d="M20,12.5v-5H17.917a6.451,6.451,0,0,0-.583-1.333L18.75,4.75l-3.5-3.5L13.833,2.667A9.259,9.259,0,0,0,12.5,2.083V0h-5V2.083a6.316,6.316,0,0,0-1.333.5l-1.5-1.417-3.5,3.5L2.583,6.083a9.586,9.586,0,0,0-.5,1.417H0v5H2.083a6.451,6.451,0,0,0,.583,1.333L1.25,15.25l3.5,3.5,1.417-1.417a9.259,9.259,0,0,0,1.333.583V20h5V17.917a6.451,6.451,0,0,0,1.333-.583L15.25,18.75l3.5-3.5-1.417-1.417a9.259,9.259,0,0,0,.583-1.333H20ZM13.333,10A3.333,3.333,0,1,1,10,6.667,3.343,3.343,0,0,1,13.333,10Z"/>
</svg>
