<!-- 
========================
This file contains icons
========================
-->

<svg version="1.1" xmlns="http://www.w3.org/2000/svg" xmlns:xlink="http://www.w3.org/1999/xlink" style="display:none;">
	<defs>

		<symbol id="icon-hamburger" viewBox="0 0 24 24">
			<rect x="2" y="4" width="20" height="4"/>
			<rect x="2" y="10" width="20" height="4"/>
			<rect x="2" y="16" width="20" height="4"/>
		</symbol>

		<symbol id="icon-home" viewBox="0 0 24 24">
			<polygon points="12,6 3,14 3,22 10,22 10,16 14,16 14,22 21,22 21,14 	"/>
			<polygon points="21,8.2 21,2 17,2 17,4.6 12,0 0,11 0,13 2,13 12,4 22,13 24,13 24,11 	"/>
		</symbol>

		<symbol id="icon-gear" viewBox="0 0 24 24">
			<path d="M24,15V9h-2.5c-0.2-0.6-0.4-1.1-0.7-1.6l1.7-1.7l-4.2-4.2l-1.7,1.7c-0.5-0.3-1.1-0.5-1.6-0.7V0H9v2.5
			C8.4,2.6,7.9,2.9,7.4,3.1L5.6,1.4L1.4,5.6l1.7,1.7C2.9,7.9,2.6,8.4,2.5,9H0v6h2.5c0.2,0.6,0.4,1.1,0.7,1.6l-1.7,1.7l4.2,4.2l1.7-1.7
			c0.5,0.3,1.1,0.5,1.6,0.7V24h6v-2.5c0.6-0.2,1.1-0.4,1.6-0.7l1.7,1.7l4.2-4.2l-1.7-1.7c0.3-0.5,0.5-1.1,0.7-1.6H24z M16,12
			c0,2.2-1.8,4-4,4s-4-1.8-4-4c0-2.2,1.8-4,4-4S16,9.8,16,12z"/>	 	
		</symbol>

		<symbol id="icon-user" viewBox="0 0 24 24">
			<circle cx="12" cy="7" r="6"/>
			<path d="M12,14c-6,0-10,4-10,9h20C22,18,18,14,12,14z"/>
		</symbol>

		<symbol id="icon-user-circle" viewBox="0 0 24 24">
			<circle cx="12" cy="9" r="5"/>
			<path d="M12,0C5.3,0,0,5.4,0,12s5.4,12,12,12c6.6,0,12-5.4,12-12S18.6,0,12,0z M19.4,18.7C18.4,16,15.7,14,12,14
			c-3.7,0-6.4,2-7.4,4.8C3,17,2,14.6,2,12C2,6.5,6.4,2,12,2c5.5,0,10,4.5,10,10C22,14.6,21,16.9,19.4,18.7z"/>
		</symbol>

		<symbol id="icon-user-circle-down" viewBox="0 0 28 24">
			<path d="M21.5,15.2c-0.4,1.3-1.2,2.5-2.1,3.5C18.4,16,15.7,14,12,14s-6.4,2-7.4,4.8C3,17,2,14.6,2,12C2,6.5,6.4,2,12,2
			c4.8,0,8.9,3.4,9.8,8h2C22.9,4.3,17.9,0,12,0C5.3,0,0,5.4,0,12s5.4,12,12,12c4.7,0,8.8-2.8,10.8-6.8L21.5,15.2z"/>
			<circle cx="12" cy="9" r="5"/>
			<polygon points="24,17 28,11 20,11"/>
		</symbol>

		<symbol id="icon-user-circle-up" viewBox="0 0 28 24">
			<path d="M21.1,16c-0.4,1-1,1.9-1.7,2.7C18.4,16,15.7,14,12,14s-6.4,2-7.4,4.8C3,17,2,14.6,2,12C2,6.5,6.4,2,12,2
				c4.9,0,9,3.6,9.8,8.2L23.3,8C21.7,3.4,17.2,0,12,0C5.3,0,0,5.4,0,12s5.4,12,12,12c5.2,0,9.6-3.4,11.3-8H21.1z"/>
			<circle cx="12" cy="9" r="5"/>
			<circle cx="12" cy="9" r="5"/>
			<polygon points="24,9 20,15 28,15"/>	
		</symbol>

		<symbol id="icon-ghost" viewBox="0 0 24 24">
			<path d="M12,1C8.7,1,6,3.7,6,7s2.7,6,6,6s6-2.7,6-6S15.3,1,12,1z M12,11c-2.2,0-4-1.8-4-4c0-2.2,1.8-4,4-4s4,1.8,4,4
				C16,9.2,14.2,11,12,11z"/>
			<path d="M12,14c-6,0-10,4-10,9h20C22,18,18,14,12,14z M4.5,21c0-2,2.5-5,7.5-5s7.5,3,7.5,5H4.5z"/>
		</symbol>		

		<symbol id="icon-users" viewBox="0 0 24 24">
			<circle cx="20" cy="4" r="3"/>
			<circle cx="4" cy="4" r="3"/>
			<circle cx="12" cy="9" r="5"/>
			<circle cx="20" cy="4" r="3"/>
			<path d="M3.2,13c0.5-0.4,1.1-0.8,1.8-1c0.6-0.2,1.2-0.2,1.7-0.2C6.3,11,6,10,6,9c0-0.6,0.1-1.2,0.3-1.7C5.6,7.7,4.8,8,4,8
				C3,8,2.2,7.7,1.5,7.1C0.7,7.4,0,8.3,0,10c0,2,1,3,3,3H3.2z"/>
			<path d="M22.5,7.1C21.8,7.7,21,8,20,8c-0.8,0-1.6-0.3-2.3-0.7C17.9,7.8,18,8.4,18,9c0,1-0.3,2-0.7,2.8c0.6-0.1,1.1,0,1.7,0.2
				c0.7,0.2,1.3,0.6,1.8,1H21c2,0,3-1,3-3C24,8.4,23.3,7.4,22.5,7.1z"/>
			<path d="M19,13c-1.1-0.4-2.1-0.4-2.7,0.2c-1.2,1-2.6,1.8-4.3,1.8c-1.7,0-3.2-0.7-4.3-1.8c0,0,0,0,0,0C7.1,12.6,6.1,12.6,5,13
				c-3,1-3,5-2,7s3,3,5,3h8c2,0,4-1,5-3S22,14,19,13z"/>		
		</symbol>
		
		<symbol id="icon-plumbob" viewBox="0 0 24 24">
			<polygon points="7,11 12,0 4,11 "/>
			<polygon points="16,11 12,0 8,11 "/>
			<polygon points="20,11 12,0 17,11 "/>
			<polygon points="17,13 12,24 20,13 "/>
			<polygon points="8,13 12,24 16,13 "/>
			<polygon points="4,13 12,24 7,13 "/>
		</symbol>

		<symbol id="icon-bell" viewBox="0 0 24 24">
			<path d="M8.1,20c0.4,1.7,2,3,3.9,3s3.4-1.3,3.9-3H8.1z"/>
			<path d="M17,8c0-2.1-1.3-3.8-3-4.6c0-0.1,0-0.3,0-0.4c0-1.1-0.9-2-2-2s-2,0.9-2,2c0,0.1,0,0.3,0,0.4C8.3,4.2,7,5.9,7,8c0,5-2,8-5,8
			v3h20v-3C19,16,17,13,17,8z"/>
		</symbol>

		<symbol id="icon-linedGlobe" viewBox="0 0 24 24">
			<path d="M12,0C5.4,0,0,5.4,0,12c0,6.6,5.4,12,12,12s12-5.4,12-12C24,5.4,18.6,0,12,0L12,0z M8.2,5.5c0.6-1.7,1.3-2.8,1.6-3.3
			C10.5,2.1,11.3,2,12,2s1.5,0.1,2.2,0.2c0.3,0.5,1,1.6,1.6,3.3C14.6,5.2,13.3,5,12,5S9.4,5.2,8.2,5.5L8.2,5.5z M20.9,7.4
			c-0.7-0.4-1.8-0.8-3-1.3c-0.4-1.2-0.9-2.3-1.3-3C18.4,4.1,19.9,5.6,20.9,7.4L20.9,7.4z M3.1,7.4c0.9-1.8,2.4-3.3,4.3-4.3
			C7,3.9,6.6,4.9,6.1,6.1C4.9,6.6,3.9,7,3.1,7.4L3.1,7.4z M7,11c0.1-1.3,0.3-2.4,0.5-3.4C8.9,7.2,10.4,7,12,7s3.1,0.2,4.4,0.6
			c0.3,1,0.5,2.2,0.5,3.4H7L7,11z M19,11c-0.1-1-0.2-1.9-0.5-2.8c1.7,0.6,2.8,1.3,3.3,1.6c0.1,0.4,0.2,0.8,0.2,1.2H19L19,11z M2.1,11
			c0-0.4,0.1-0.8,0.2-1.2c0.5-0.3,1.6-1,3.3-1.6C5.3,9.1,5.1,10,5,11H2.1L2.1,11z M18.5,15.8c0.2-0.9,0.4-1.8,0.5-2.8h3
			c0,0.4-0.1,0.8-0.2,1.2C21.3,14.5,20.2,15.2,18.5,15.8L18.5,15.8z M12,17c-1.6,0-3.1-0.2-4.4-0.6c-0.3-1-0.5-2.2-0.5-3.4H17
			c-0.1,1.3-0.3,2.4-0.5,3.4C15.1,16.8,13.6,17,12,17L12,17z M5.5,15.8c-1.7-0.6-2.8-1.3-3.3-1.6c-0.1-0.4-0.2-0.8-0.2-1.2h3
			C5.1,14,5.3,14.9,5.5,15.8L5.5,15.8z M16.6,20.9c0.4-0.7,0.8-1.8,1.3-3c1.2-0.4,2.3-0.9,3-1.3C19.9,18.4,18.4,19.9,16.6,20.9
			L16.6,20.9z M7.4,20.9c-1.8-0.9-3.3-2.4-4.3-4.3c0.7,0.4,1.8,0.8,3,1.3C6.6,19.1,7,20.1,7.4,20.9L7.4,20.9z M15.8,18.5
			c-0.6,1.7-1.3,2.8-1.6,3.3C13.5,21.9,12.7,22,12,22s-1.5-0.1-2.2-0.2c-0.3-0.5-1-1.6-1.6-3.3C9.4,18.8,10.7,19,12,19
			S14.6,18.8,15.8,18.5L15.8,18.5z"/>
		</symbol>

		<symbol id="icon-pin" viewBox="0 0 24 24">
			<path d="M16,0l-2,2l1,1l-3.6,3.6c-2-0.4-3.9,0-5.3,1.4l9.9,9.9c1.4-1.4,1.8-3.4,1.4-5.3L21,9l1,1l2-2L16,0z"/>
			<polygon points="0,24 8,13 11,16 "/>
		</symbol>


		<symbol id="icon-videoChat" viewBox="0 0 24 24">
			<path d="M12,1C5.4,1,0,5.3,0,10.6c0,2.8,1.5,5.3,3.9,7.1C4,17.7,2,23,2,23l6.6-3.2c1.1,0.3,2.2,0.4,3.4,0.4c6.6,0,12-4.3,12-9.6
			S18.6,1,12,1z M18,14l-3-3.3V14H7V7h8v3.3L18,7V14z"/>
		</symbol>

		<symbol id="icon-upload" viewBox="0 0 24 24">
			<polygon id="alt" points="20,9 12,1 4,9 9,9 9,16 15,16 15,9 "/>
			<path d="M16,15v2H8v-2H2v7h20v-7H16z M16,20c-0.6,0-1-0.4-1-1c0-0.6,0.4-1,1-1s1,0.4,1,1C17,19.6,16.6,20,16,20z M19,20
			c-0.6,0-1-0.4-1-1c0-0.6,0.4-1,1-1s1,0.4,1,1C20,19.6,19.6,20,19,20z"/>
		</symbol>

		<symbol id="icon-form" viewBox="0 0 24 24">
			<path d="M1,1v22h22V1H1z M21,21H3V5h18V21z"/>
			<rect x="5" y="8" width="2" height="2"/>
			<rect x="9" y="8" width="10" height="2"/>
			<rect x="5" y="12" width="2" height="2"/>
			<rect x="9" y="12" width="10" height="2"/>
			<rect x="5" y="16" width="2" height="2"/>
			<rect x="9" y="16" width="10" height="2"/>
		</symbol>		

		<symbol id="icon-cart" viewBox="0 0 24 24">
			<polygon points="7,5 7,2 1,2 1,5 4,5 6,16 20,16 22,5 "/>
			<circle cx="9" cy="20" r="3"/>
			<circle cx="17" cy="20" r="3"/>
		</symbol>

		<symbol id="icon-closedEnvelope" viewBox="0 0 24 24">
			<polygon points="24,20 0,20 0,8 12,16 24,8"/>
			<path d="M0,4v2l12,8l12-8V4C24,4,0,4,0,4z"/>		
		</symbol>

		<symbol id="icon-openEnvelope" viewBox="0 0 24 24">
			<polygon points="12,1 0,8 6,12 6,6 18,6 18,12 24,8"/>
			<polygon points="24,21 0,21 0,9 12,17 24,9"/>
			<rect x="8" y="8" width="8" height="2"/>
			<polygon points="8,13.3 9,14 15,14 16,13.3 16,12 8,12"/>
		</symbol>

		<symbol id="icon-twoEnvelopes" viewBox="0 0 24 24">
			<path d="M16,5l-8,6v1v9h16v-9v-1L16,5z M16,17l-7.3-5.5L16,6l7.3,5.5L16,17z"/>
			<path d="M0,3l0,1l8,6l8-6l0-1C16,3,0,3,0,3z"/>
			<polygon points="7,10.3 0,5 0,15 7,15 "/>
		</symbol>

		<symbol id="icon-hardwareTools" viewBox="0 0 24 24">
			<path d="M8.5,11.5L2,18c-1,1-1,3,0,4c1,1,3,1,4,0l5-5l0-3L8.5,11.5z M4,21c-0.6,0-1-0.4-1-1c0-0.6,0.4-1,1-1s1,0.4,1,1
				C5,20.6,4.6,21,4,21z"/>
			<path d="M22.7,4.3L20,7c-0.8,0.8-2.2,0.8-3,0c-0.8-0.8-0.8-2.2,0-3l2.7-2.7C19.2,1.1,18.6,1,18,1c-2.8,0-5,2.2-5,5
				c0,0.3,0,0.6,0.1,0.9l-1.6,1.6L14,11l4,0c2.8,0,5-2.2,5-5C23,5.4,22.9,4.8,22.7,4.3z"/>
			<path d="M22,18l-5.3-5.3l0,0l0,0l0,0l0,0C16.3,12.3,15.6,12,15,12c-0.5,0-1.1,0.2-1.5,0.5L7,6V4L2,1L1,2l3,5h2l6.5,6.5
				C12.2,13.9,12,14.5,12,15c0,0.6,0.3,1.3,0.7,1.7l0,0L18,22c1,1,3,1,4,0C23,21,23,19,22,18z"/>
		</symbol>
		
		<symbol id="icon-goodChat" viewBox="0 0 24 24">
			<path d="M12,1C5.4,1,0,5.3,0,10.6c0,2.8,1.5,5.3,3.9,7.1C4,17.7,2,23,2,23l6.6-3.2c1.1,0.3,2.2,0.4,3.4,0.4c6.6,0,12-4.3,12-9.6
			S18.6,1,12,1z M9,15H7V9h2V15z M17,11l-2,4l-5-1V8h1l1-4h2l-1,4h4V11z"/>
		</symbol>

		<symbol id="icon-bulb" viewBox="0 0 24 24">
			<rect x="8" y="17" width="8" height="2"/>
			<polygon points="8,20 8,22 10,22 10,24 14,24 14,22 16,22 16,20 "/>
			<path d="M12,0C7.6,0,4,3.6,4,8c0,3,1.6,5.5,4,6.9V16h2v-5H9.5C8.7,11,8,10.3,8,9.5S8.7,8,9.5,8S11,8.7,11,9.5V10h2V9.5
				C13,8.7,13.7,8,14.5,8S16,8.7,16,9.5S15.3,11,14.5,11H14v5h2v-1.1c2.4-1.4,4-4,4-6.9C20,3.6,16.4,0,12,0z"/>
			<rect x="11" y="11" width="2" height="5"/>
			<circle cx="14.5" cy="9.5" r="0.5"/>
			<circle cx="9.5" cy="9.5" r="0.5"/>			
		</symbol>

		<symbol id="icon-litBulb" viewBox="0 0 24 24">
			<rect x="8" y="18" width="8" height="2"/>
			<polygon points="8,21 8,23 10,23 10,24 14,24 14,23 16,23 16,21 "/>
			<path d="M12,3c-3.9,0-7,3.1-7,7c0,2.4,1.2,4.5,3,5.7V17h8v-1.3c1.8-1.3,3-3.4,3-5.7C19,6.1,15.9,3,12,3z M15,15.2V16H9v-0.8
				c-1.8-1-3-3-3-5.2c0-3.3,2.7-6,6-6s6,2.7,6,6C18,12.2,16.8,14.2,15,15.2z"/>
			<rect x="11" width="2" height="2"/>
			<rect x="4.6" y="2.6" transform="matrix(0.7071 -0.7071 0.7071 0.7071 -0.9203 5.0503)" width="2" height="2"/>
			<rect x="4.6" y="15.4" transform="matrix(-0.7071 -0.7071 0.7071 -0.7071 -1.9497 31.9203)" width="2" height="2"/>
			<rect x="17.4" y="15.4" transform="matrix(-0.7071 0.7071 -0.7071 -0.7071 42.9203 14.9497)" width="2" height="2"/>
			<rect x="17.4" y="2.6" transform="matrix(0.7071 0.7071 -0.7071 0.7071 7.9497 -11.9203)" width="2" height="2"/>
			<rect x="20" y="9" width="2" height="2"/>
			<rect x="2" y="9" width="2" height="2"/>
		</symbol>


		<symbol id="icon-reply" viewBox="0 0 24 24">
			<polygon points="24,22 8,22 8,12 16,18 24,12"/>
			<path d="M8,10v1l8,6l8-6v-1C24,10,8,10,8,10z"/>
			<polygon points="6,0 0,6 6,12 6,8 14,8 14,4 6,4 "/>
		</symbol>

		<symbol id="icon-replyAll" viewBox="0 0 24 24">
			<polygon points="24,22 8,22 8,12 16,18 24,12"/>
			<path d="M8,10v1l8,6l8-6v-1C24,10,8,10,8,10z"/>
			<polygon points="6,0 0,6 6,12 6,8 14,8 14,4 6,4 "/>
			<polygon points="7,20 4,20 4,12 7,15 "/>
			<rect x="16" y="6" width="6" height="3"/>
		</symbol>

		<symbol id="icon-calendarEmpty" viewBox="0 0 24 24">
			<path d="M20,3V1h-6v2h-4V1H4v2H1v20h22V3H20z M21,21H3V10h18V21z"/>
		</symbol>

		<symbol id="icon-calendarAlert" viewBox="0 0 24 24">
			<path d="M20,3V1h-6v2h-4V1H4v2H1v20h22V3H20z M21,21H3V10h18V21z"/>
			<rect x="11" y="12" width="2" height="4"/>
			<rect x="11" y="17" width="2" height="2"/>
		</symbol>

		<symbol id="icon-calendarClock" viewBox="0 0 24 24">
			<path d="M20,3V1h-6v2h-4V1H4v2H1v20h22V3H20z M21,21H3V10h18V21z"/>
			<path d="M12,11c-2.5,0-4.5,2-4.5,4.5S9.5,20,12,20s4.5-2,4.5-4.5S14.5,11,12,11z M12,19c-1.9,0-3.5-1.6-3.5-3.5S10.1,12,12,12
				s3.5,1.6,3.5,3.5S13.9,19,12,19z"/>
			<polygon points="12,15.5 12,13 11,13 11,16.5 14.5,16.5 14.5,15.5 "/>
		</symbol>

		<symbol id="icon-calendarCheck" viewBox="0 0 24 24">
			<path d="M20,3V1h-6v2h-4V1H4v2H1v20h22V3H20z M21,21H3V10h18V21z"/>
			<polygon points="16,11 11,16 9,14 7,16 11,20 18,13 "/>
		</symbol>


		<symbol id="icon-indentedStacks" viewBox="0 0 24 24">
			<rect x="2" y="3" width="18" height="6"/>
			<rect x="5" y="11" width="17" height="4"/>
			<rect x="5" y="17" width="17" height="4"/>
		</symbol>

		<symbol id="icon-heartOnSheet" viewBox="0 0 24 24">
			<polygon points="20,6 15,1 15,6"/>
			<path d="M14,7V1H4v22h16V7H14z M16.2,14.8C15.1,15.9,12,19,12,19s-3.1-3.1-4.2-4.2C7.4,14.4,7,13.5,7,12.8c0-1.5,1.3-2.5,2.8-2.5
			c0.9,0,1.7,0.6,2.2,1.3c0.5-0.7,1.3-1.3,2.2-1.3c1.5,0,2.8,1,2.8,2.5C17,13.5,16.6,14.3,16.2,14.8z"/>
		</symbol>

		<symbol id="icon-ticket" viewBox="0 0 24 24">
			<path d="M21,6l-1,1l-3-3l1-1l-3-3L0,15l3,3l1-1l3,3l-1,1l3,3L24,9L21,6z M10,19l-5-5l9-9l5,5L10,19z"/>
			<polygon points="10,17 7,14.1 14,7 17,10 "/>
		</symbol>

		<symbol id="icon-closedKeylock" viewBox="0 0 24 24">
			<path d="M19,10V7c0-3.9-3.1-7-7-7S5,3.1,5,7v3H3v13h18V10H19z M8,7c0-2.2,1.8-4,4-4s4,1.8,4,4v3H8V7z M13,16.7V20
			h-2v-3.3c-0.6-0.3-1-1-1-1.7c0-1.1,0.9-2,2-2s2,0.9,2,2C14,15.7,13.6,16.4,13,16.7z"/>
		</symbol>

		<symbol id="icon-openKeylock" viewBox="0 0 24 24">
			<path id="new" d="M16,10h-1H8V7c0-2.2,1.8-4,4-4s4,1.8,4,4h3c0-3.9-3.1-7-7-7S5,3.1,5,7v3H3v13h18V10h-2H16z M13,16.7V20h-2v-3.3
			c-0.6-0.3-1-1-1-1.7c0-1.1,0.9-2,2-2s2,0.9,2,2C14,15.7,13.6,16.4,13,16.7z"/>
		</symbol>

		<symbol id="icon-check" viewBox="0 0 24 24">
			<polygon points="20,4 9,15 4,10 1,13 9,21 23,7 "/>
		</symbol>

		<symbol id="icon-exMark" viewBox="0 0 24 24">
			<polygon points="20,1 12,9 4,1 1,4 9,12 1,20 4,23 12,15 20,23 23,20 15,12 23,4"/>
		</symbol>

		<symbol id="icon-triangle" viewBox="0 0 24 24">
			<polygon points="12,1 1,20 23,20 "/>
		</symbol>

		<symbol id="icon-sort-unsorted" viewBox="0 0 24 24">
			<path d="M12,1L5,12h14L12,1z"/>
			<path d="M12,23l7-10H5L12,23z"/>
		</symbol>

		<symbol id="icon-sort-down" viewBox="0 0 24 24">
			<path d="M12,18l7-11H5L12,18z"/>
		</symbol>

		<symbol id="icon-sort-up" viewBox="0 0 24 24">
			<path d="M12,6L5,17h14L12,6z"/>
		</symbol>

		<symbol id="icon-caret" viewBox="0 0 24 24">
			<polygon points="1,16 4,19 12,11 20,19 23,16 12,5"/>
		</symbol>		

		<symbol id="icon-doubleCaret" viewBox="0 0 24 24">
			<polygon points="1,12 4,15 12,7 20,15 23,12 12,1"/>
			<polygon points="1,20 4,23 12,15 20,23 23,20 12,9"/>
		</symbol>

		<symbol id="icon-paperPlane" viewBox="0 0 24 24">
			<polygon points="1,14 7,16 20,5 10,17 10,23 15,18.6 21,20.6 23,1 "/>
		</symbol>

		<symbol id="icon-doubleArrow" viewBox="0 0 24 24">
			<polygon points="15,8 20,8 12,0 4,8 9,8 9,16 4,16 12,24 20,16 15,16 "/>
		</symbol>

		<symbol id="icon-eyeball" viewBox="0 0 24 24">
			<path d="M12.6,4c-0.2,0-0.4,0-0.6,0s-0.4,0-0.6,0C5,4.4,0,10.1,0,12c0,2,5.4,8,12,8s12-6,12-8C24,10.1,19,4.4,12.6,4z M11,6
			c0.6,0,1,0.4,1,1c0,0.6-0.4,1-1,1c-1,0-2,1-2,2c0,0.6-0.4,1-1,1s-1-0.4-1-1C7,8,9,6,11,6z M12,18c-6,0-10-6-10-6s1.7-2.5,4.4-4.3
			C6.2,8.4,6,9.2,6,10c0,3.3,2.7,6,6,6s6-2.7,6-6c0-0.8-0.2-1.6-0.4-2.3C20.3,9.5,22,12,22,12S18,18,12,18z"/>
		</symbol>

		<symbol id="icon-eyeballAdd" viewBox="0 0 24 24">
			<path d="M12.2,17c-0.1,0-0.1,0-0.2,0c-6,0-10-6-10-6s1.7-2.5,4.4-4.3C6.2,7.4,6,8.2,6,9c0,3.3,2.7,6,6,6c0,0,0,0,0,0
			c0.3-2.8,2.6-5,5.5-5c0.1,0,0.3,0,0.4,0C18,9.7,18,9.3,18,9c0-0.8-0.2-1.6-0.4-2.3C20.3,8.5,22,11,22,11s-0.2,0.3-0.5,0.7
			c0.5,0.5,0.9,1.2,1.2,1.9c0.9-1,1.3-2,1.3-2.6c0-1.9-5-7.6-11.4-8c-0.2,0-0.4,0-0.6,0s-0.4,0-0.6,0C5,3.4,0,9.1,0,11
			c0,2,5.4,8,12,8c0.4,0,0.8,0,1.2-0.1C12.8,18.4,12.4,17.7,12.2,17z M11,5c0.6,0,1,0.4,1,1c0,0.6-0.4,1-1,1c-1,0-2,1-2,2
			c0,0.6-0.4,1-1,1S7,9.6,7,9C7,7,9,5,11,5z"/>
			<path d="M17.5,11C15,11,13,13,13,15.5s2,4.5,4.5,4.5s4.5-2,4.5-4.5S20,11,17.5,11z M20,16h-2v2h-1v-2h-2v-1h2v-2h1v2h2V16z"/>
		</symbol>

		<symbol id="icon-eyeballMinus" viewBox="0 0 24 24">
			<path d="M12.2,17c-0.1,0-0.1,0-0.2,0c-6,0-10-6-10-6s1.7-2.5,4.4-4.3C6.2,7.4,6,8.2,6,9c0,3.3,2.7,6,6,6c0,0,0,0,0,0
			c0.3-2.8,2.6-5,5.5-5c0.1,0,0.3,0,0.4,0C18,9.7,18,9.3,18,9c0-0.8-0.2-1.6-0.4-2.3C20.3,8.5,22,11,22,11s-0.2,0.3-0.5,0.7
			c0.5,0.5,0.9,1.2,1.2,1.9c0.9-1,1.3-2,1.3-2.6c0-1.9-5-7.6-11.4-8c-0.2,0-0.4,0-0.6,0s-0.4,0-0.6,0C5,3.4,0,9.1,0,11
			c0,2,5.4,8,12,8c0.4,0,0.8,0,1.2-0.1C12.8,18.4,12.4,17.7,12.2,17z M11,5c0.6,0,1,0.4,1,1c0,0.6-0.4,1-1,1c-1,0-2,1-2,2
			c0,0.6-0.4,1-1,1S7,9.6,7,9C7,7,9,5,11,5z"/>
			<path d="M17.5,11C15,11,13,13,13,15.5s2,4.5,4.5,4.5s4.5-2,4.5-4.5S20,11,17.5,11z M20,16h-5v-1h5V16z"/>
		</symbol>

		<symbol id="icon-eyeball-slash" viewBox="0 0 24 24">
			<path d="M19.6,6.6l-1.5,1.5C20.6,9.8,22,12,22,12s-4,6-10,6c-1,0-1.9-0.2-2.8-0.5l-1.5,1.6C9,19.7,10.5,20,12,20c6.6,0,12-6,12-8
				C24,10.9,22.3,8.5,19.6,6.6z"/>
			<path d="M12,16c3.3,0,6-2.7,6-6c0-0.5-0.1-1.1-0.2-1.6l-7,7.4C11.2,16,11.6,16,12,16z"/>
			<path d="M19,2l-2.7,2.9c-1.1-0.4-2.4-0.7-3.7-0.8c-0.2,0-0.4,0-0.6,0s-0.4,0-0.6,0C5,4.4,0,10.1,0,12c0,1.1,1.7,3.5,4.4,5.4L2,20
				l2,2L21,4L19,2z M11,6c0.6,0,1,0.4,1,1c0,0.6-0.4,1-1,1c-1,0-2,1-2,2c0,0.6-0.4,1-1,1s-1-0.4-1-1C7,8,9,6,11,6z M2,12
				c0,0,1.7-2.5,4.4-4.3C6.2,8.4,6,9.2,6,10c0,1.6,0.6,3,1.6,4.1l-1.7,1.8C3.4,14.2,2,12,2,12z"/>	
		</symbol>

		<symbol id="icon-hint" viewBox="0 0 24 24">
			<path d="M12,0C5.4,0,0,5.4,0,12c0,6.6,5.4,12,12,12s12-5.4,12-12C24,5.4,18.6,0,12,0z M13,20h-2v-2h2V20z M14.6,12.5
			c-1,0.9-1.6,1.3-1.6,3V16h-2v-0.5c0-2.3,1.3-3.6,2.3-4.5S15,9.7,15,8c0-0.5-0.2-1-0.6-1.3S13.3,6,12,6c-1.3,0-1.9,0.4-2.3,0.8
			S9.1,7.6,9.1,8.1l-2-0.3c0.1-0.8,0.4-1.8,1.2-2.6C9,4.5,10.3,4,12,4c1.7,0,3,0.4,3.8,1.2C16.7,6,17,7,17,8
			C17,10.3,15.6,11.6,14.6,12.5z"/>
		</symbol>

		<symbol id="icon-pencil" viewBox="0 0 24 24">
			<path d="M20.5,9.5l-6-6l2-2c0.7-0.7,2.3-0.7,3,0l3,3c0.7,0.7,0.7,2.3,0,3L20.5,9.5z"/>
			<path d="M13,5L1,17v6h6l12-12L13,5z M13,8l0.5,0.5L6,16l-0.5-0.5L13,8z M6,21H5v-2H3v-1l1-1l3,3L6,21z"/>
		</symbol>

		<symbol id="icon-trashBin" viewBox="0 0 24 24">
			<path d="M18,6l-2-4H8L6,6H2v2h2v12c0,1.1,0.9,2,2,2h12c1.1,0,2-0.9,2-2V8h2V6H18z M9,19H7v-9h2V19z M13,19h-2v-9h2V19z
			M17,19h-2v-9h2V19z M10,4h4l1,2H9L10,4z"/>
		</symbol>

		<symbol id="icon-key" viewBox="0 0 24 24">
			<path d="M17.5,0C13.9,0,11,2.9,11,6.5c0,1,0.2,2,0.7,2.8L1,20l2,2l2,2l2-2l-2-2l2-2l2,2l2-2l-2-2l4.4-4.4c1.1,0.9,2.5,1.4,4.1,1.4
	c3.6,0,6.5-2.9,6.5-6.5S21.1,0,17.5,0z M17.5,10C15.6,10,14,8.4,14,6.5S15.6,3,17.5,3S21,4.6,21,6.5S19.4,10,17.5,10z"/>
		</symbol>

		<symbol id="icon-barGraph" viewBox="0 0 24 24">
			<rect x="1" y="21" width="22" height="2"/>
			<rect x="1" y="8" width="6" height="12"/>
			<rect x="9" y="14" width="6" height="6"/>
			<rect x="17" y="2" width="6" height="18"/>
		</symbol>

		<symbol id="icon-arrow" viewBox="0 0 24 24">
			<polygon points="21,11 12,2 3,11 6,14 10,10 10,22 14,22 14,10 18,14 "/>
		</symbol>

		<symbol id="icon-encircledArrow" viewBox="0 0 24 24">
			<path d="M12,0C5.4,0,0,5.4,0,12c0,6.6,5.4,12,12,12s12-5.4,12-12C24,5.4,18.6,0,12,0z M18,13l-4-4v12h-4V9l-4,4l-2-2l8-8l8,8L18,13z
			"/>
		</symbol>

		<symbol id="icon-html" viewBox="0 0 24 24">
			<polygon id="icon" points="7,19 8,18 2,12 8,6 7,5 0,12 "/>
			<polygon id="icon_1_" points="17,5 16,6 22,12 16,18 17,19 24,12 "/>
			<polygon points="11,21 9,21 13,3 15,3 "/>
		</symbol>

		<symbol id="icon-plus" viewBox="0 0 24 24">
			<polygon points="24,10 14,10 14,0 10,0 10,10 0,10 0,14 10,14 10,24 14,24 14,14 24,14"/>
		</symbol>

		<symbol id="icon-minus" viewBox="0 0 24 24">
			<rect y="10" width="24" height="4"/>
		</symbol>

		<symbol id="icon-search" viewBox="0 0 24 24">
			<path d="M24,21l-7.7-6.8c1-1.5,1.7-3.3,1.7-5.2c0-5-4-9-9-9S0,4,0,9c0,5,4,9,9,9c1.5,0,2.9-0.4,4.1-1l7.9,7L24,21z M4,9
			c0-2.8,2.2-5,5-5s5,2.2,5,5s-2.2,5-5,5S4,11.8,4,9z"/>
		</symbol>

		<symbol id="icon-refresh" viewBox="0 0 24 24">
			<path d="M13,0C6,0,4,4,4,10H0l6,6l6-6H8C8,4,10,1,13,0z"/>
			<path d="M11,24c7,0,9-4,9-10h4l-6-6l-6,6h4C16,20,14,23,11,24z"/>
		</symbol>

		<symbol id="icon-folderDownArrow" viewBox="0 0 24 24">
			<polygon points="3,3 10,3 11,5 21,5 22,8 2,8 "/>
			<path d="M1,9l1,13h20l1-13H1z M12,20l-5-5h3v-4h4v4h3L12,20z"/>
		</symbol>

		<symbol id="icon-folder-open" viewBox="0 0 24 24">
			<polygon points="3,3 10,3 11,5 21,5 22,8 2,8 "/>
			<path d="M1,9l1,13h20l1-13H1z"/>
		</symbol>

		<symbol id="icon-folder-closed" viewBox="0 0 24 24">
			<polygon points="11,5 10,3 2,3 2,22 22,22 22,5 "/>
		</symbol>

		<symbol id="icon-save" viewBox="0 0 24 24">
			<path d="M19,2h-2v6H7V2H2v20h20V5L19,2z M19,19H5v-9h14V19z"/>
			<rect x="13" y="3" width="2" height="4"/>
		</symbol>

		<symbol id="icon-lookCloser" viewBox="0 0 24 24">
			<path d="M16.1,16.1c0.9-1,1.4-2.2,1.4-3.6C17.5,9.5,15,7,12,7s-5.5,2.5-5.5,5.5c0,3,2.5,5.5,5.5,5.5c1.1,0,2.2-0.3,3.1-0.9L20,22h1
				v-1L16.1,16.1z M12,16c-1.9,0-3.5-1.6-3.5-3.5S10.1,9,12,9s3.5,1.6,3.5,3.5S13.9,16,12,16z"/>
			<rect x="10" y="11" width="4" height="1"/>
			<rect x="10" y="13" width="4" height="1"/>
			<polygon points="16,0 3,0 3,24 19,24 18,23 4,23 4,1 15,1 15,6 20,6 20,17 21,18 21,5 "/>
		</symbol>

		<symbol id="icon-doubleWindow" viewBox="0 0 24 24">
			<path d="M7,2v14h16V2H7z M21,14H9V6h12V14z"/>
			<polygon points="15,17 15,20 3,20 3,12 6,12 6,8 1,8 1,22 17,22 17,17 "/>		
		</symbol>				

		<symbol id="icon-storeFront" viewBox="0 0 24 24">
			<polygon points="23,7 1,7 5,1 19,1 "/>
			<rect x="8" y="15" width="2" height="3"/>
			<rect x="14" y="15" width="2" height="3"/>
			<path d="M21,11.4c1.2-0.7,2-2,2-3.4H1c0,1.5,0.8,2.8,2,3.4V21H1v2h22v-2h-2V11.4z M5,21v-9c1.2,0,2.3-1.2,3-2c0.6,0.7,1.6,1.6,3,1.9
				V21H5z M13,21v-9.1c1.4-0.3,2.4-1.2,3-1.9c0.7,0.8,1.8,2,3,2v9H13z"/>
		</symbol>

		<symbol id="icon-speechBubbles" viewBox="0 0 24 24">
			<path d="M24,13c0-1.8-0.8-3.5-2.1-4.8C22,8.4,22,8.7,22,9c0,5.5-5.4,10-12,10c-1.1,0-2.1-0.1-3.1-0.3C8.7,20.1,11.2,21,14,21
			c1,0,2-0.1,2.9-0.3L22,23l-1.6-3.9C22.6,17.6,24,15.5,24,13z"/>
			<path d="M10,1C4.5,1,0,4.6,0,9c0,2.5,1.4,4.6,3.6,6.1L2,19l5.1-2.3C8,16.9,9,17,10,17c5.5,0,10-3.6,10-8S15.5,1,10,1z"/>
		</symbol>

		<symbol id="icon-pawprint" viewBox="0 0 20 20">
			<path d="M6.265,0.826c1.389,0,3.072,2.146,3.072,4.166c0,2.02-1.095,2.988-2.23,2.988C5.97,7.98,3.95,5.876,3.95,3.646
				S5.086,0.826,6.265,0.826z"/>
			<path d="M13.755,0.826c-1.388,0-3.072,2.146-3.072,4.166c0,2.02,1.095,2.988,2.23,2.988c1.137,0,3.156-2.104,3.156-4.335
				S14.934,0.826,13.755,0.826z"/>
			<path d="M1.93,6.634c2.021,0,3.409,2.692,3.409,4.04c0,1.346-0.884,2.398-1.978,2.398C1.846,13.072,0,10.842,0,8.99
				S1.32,6.634,1.93,6.634z"/>
			<path d="M18.07,6.634c-2.021,0-3.408,2.692-3.408,4.04c0,1.346,0.883,2.398,1.977,2.398c1.516,0,3.361-2.23,3.361-4.082
				S18.68,6.634,18.07,6.634z"/>
			<path d="M9.97,10.337c2.829,0,7.037,4.377,7.037,7.027c0,1.771-1.932,1.81-2.376,1.81c-1.441,0-3.526-1.137-4.631-1.137
				c-1.295,0-3.64,1.099-4.692,1.099c-1.01,0-2.314,0-2.314-1.771C2.993,14.72,6.425,10.337,9.97,10.337z"/>			
		</symbol>	

		<symbol id="icon-curvedArrow" viewBox="0 0 24 24">
			<path d="M9,17c0-3,2-4,4-4v6l8-9l-8-9v6c-5,0-8,3-8,8s4,8,8,8C10,21.5,9,20,9,17z"/>
		</symbol>		

		<symbol id="icon-encircledCheck" viewBox="0 0 24 24">
			<path d="M12,0C5.4,0,0,5.4,0,12c0,6.6,5.4,12,12,12s12-5.4,12-12C24,5.4,18.6,0,12,0z M10,18l-5-5l2-2l3,3l8-8l2,2L10,18z"/>
		</symbol>	

		<symbol id="icon-deviceVolume" viewBox="0 0 24 24">
			<polygon points="3,9 0,9 0,15 3,15 9,19 9,5 	"/>
			<path d="M11.8,12c0,0.8-0.3,1.5-0.8,2l1,2c1.2-0.9,1.9-2.4,1.9-4S13.2,8.9,12,8l-1,2C11.5,10.5,11.8,11.2,11.8,12z"/>
			<path d="M14,4l-1,2c1.9,1.3,3.1,3.5,3.1,6c0,2.5-1.2,4.7-3.1,6l1,2c2.6-1.7,4.3-4.7,4.3-8S16.6,5.7,14,4z"/>
			<path d="M16,0C16,0,16,0,16,0L16,0l-1,2c3.3,2.1,5.5,5.8,5.5,10c0,4.2-2.2,7.9-5.5,10l1,2c4.1-2.4,6.8-6.9,6.8-12
			C22.8,6.9,20.1,2.5,16,0z"/>
		</symbol>						

		<symbol id="icon-download" viewBox="0 0 24 24">
			<path d="M15,15l-3,3l-3-3H2v7h20v-7H15z M16,20c-0.6,0-1-0.4-1-1c0-0.6,0.4-1,1-1s1,0.4,1,1C17,19.6,16.6,20,16,20z M19,20
			c-0.6,0-1-0.4-1-1c0-0.6,0.4-1,1-1s1,0.4,1,1C20,19.6,19.6,20,19,20z"/>
			<polygon id="alt" points="4,8 12,16 20,8 15,8 15,1 9,1 9,8 "/>
		</symbol>
		
		<symbol id="icon-checkHeart" viewBox="0 0 24 24">
			<path d="M17.3,2c-2.2,0-4.1,1.3-5.3,3c-1.2-1.7-3.1-3-5.3-3C3.1,2,0,4.4,0,8c0,1.7,0.9,3.8,2,5c2.5,2.5,10,10,10,10s7.5-7.5,10-10
			c1.1-1.2,2-3.2,2-5C24,4.4,20.9,2,17.3,2z M11,16l-4-4l2-2l2,2l5-5l2,2L11,16z"/>
		</symbol>

		<symbol id="icon-plusHeart" viewBox="0 0 24 24">
			<path d="M17.3,2c-2.2,0-4.1,1.3-5.3,3c-1.2-1.7-3.1-3-5.3-3C3.1,2,0,4.4,0,8c0,1.7,0.9,3.8,2,5c2.5,2.5,10,10,10,10s7.5-7.5,10-10
			c1.1-1.2,2-3.2,2-5C24,4.4,20.9,2,17.3,2z M17,13h-4v4h-2v-4H7v-2h4V7h2v4h4V13z"/>
		</symbol>

		<symbol id="icon-eReader" viewBox="0 0 24 24">
			<path d="M2,1v22h20V1H2z M15,21H9v-2h6V21z M20,17H4V3h16V17z"/>
			<rect x="6" y="5" width="12" height="2"/>
			<rect x="6" y="9" width="12" height="2"/>
			<rect x="6" y="13" width="12" height="2"/>
		</symbol>	

		<symbol id="icon-file" viewBox="0 0 24 24">
			<polygon points="20,6 15,1 15,6"/>
			<path d="M14,7V6V1H4v22h16V7H14z M17,18H7v-2h10V18z M17,14H7v-2h10V14z"/>
		</symbol>

		<symbol id="icon-scissors" viewBox="0 0 24 24">
			<path d="M13.4,16c2.5,1.3,6.1,4.3,7.6,4.3c2,0,3-1.3,3-1.3l-7-6.1L13.4,16z"/>
			<path d="M21,3.8c-2,0-7.4,5-9.4,5C9.9,8.7,9.5,8,9.5,7C9.5,2.6,5,1.8,4,1.8C3,1.8,0,2,0,5c0,3.6,3.9,5,5.5,5c1.5,0,1.4-0.3,2-0.3
				c0.7,0,1.5,0.2,1.8,0.5C9.3,10.3,10,11.2,10,12c0,0.8-0.7,1.7-0.8,1.7C9,14,8.2,14.2,7.5,14.2c-0.6,0-0.5-0.3-2-0.3
				C3.9,14,0,15.4,0,19c0,3,3,3.3,4,3.3c1,0,5.5-0.9,5.5-5.3c0-1,0.4-1.7,2.1-1.7c0.1,0,0.1,0,0.2,0L24,5C24,5,23,3.8,21,3.8z M5.5,8.3
				c-2,0-3.7-1.6-3.7-3C1.8,5,2,3.5,4,3.5c2.3,0,3.7,1.8,3.7,3S6.6,8.3,5.5,8.3z M4,20.5c-2,0-2.2-1.5-2.2-1.8c0-1.4,1.7-3,3.7-3
				c1.1,0,2.2,0.6,2.2,1.8S6.3,20.5,4,20.5z M12,13c-0.6,0-1-0.4-1-1c0-0.6,0.4-1,1-1s1,0.4,1,1C13,12.6,12.6,13,12,13z"/>	
		</symbol>	

		<symbol id="icon-play" viewBox="0 0 24 24">
			<path d="M12,0C5.4,0,0,5.4,0,12c0,6.6,5.4,12,12,12s12-5.4,12-12C24,5.4,18.6,0,12,0z M8,18V6l11,6L8,18z"/>
		</symbol>				

		<symbol id="icon-books" viewBox="0 0 24 24">
			<path d="M4.5,22h-1C2.7,22,2,21.3,2,20.5v-17C2,2.7,2.7,2,3.5,2h1C5.3,2,6,2.7,6,3.5v17C6,21.3,5.3,22,4.5,22z"/>
			<path d="M10.5,22h-1C8.7,22,8,21.3,8,20.5v-17C8,2.7,8.7,2,9.5,2h1C11.3,2,12,2.7,12,3.5v17C12,21.3,11.3,22,10.5,22z"/>
			<path d="M21.3,21.5l-1,0.3c-0.8,0.2-1.6-0.3-1.8-1.1L14.3,4.3c-0.2-0.8,0.3-1.6,1.1-1.8l1-0.3c0.8-0.2,1.6,0.3,1.8,1.1l4.3,16.4
			C22.6,20.5,22.1,21.3,21.3,21.5z"/>
		</symbol>			

		<symbol id="icon-heart" viewBox="0 0 24 24">
			<path d="M22,13c1.1-1.2,2-3.2,2-5c0-3.6-3.1-6-6.7-6c-2.2,0-4.1,1.3-5.3,3c-1.2-1.7-3.1-3-5.3-3C3.1,2,0,4.4,0,8c0,1.7,0.9,3.8,2,5
			c2.5,2.5,10,10,10,10S19.5,15.5,22,13z"/>
		</symbol>

		<symbol id="icon-greekRevival" viewBox="0 0 24 24">
			<rect x="1" y="22" width="22" height="2"/>
			<polygon points="19,19 19,10 17,10 17,19 15,19 15,10 13,10 13,19 11,19 11,10 9,10 9,19 7,19 7,10 5,10 5,19 3,19 3,21 21,21 
			21,19 	"/>
			<path d="M12,0L1.2,8.1C0.8,8.4,1,9,1.5,9h20.9c0.5,0,0.7-0.6,0.3-0.9L12,0z"/>		
		</symbol>	

		<symbol id="icon-alert" viewBox="0 0 24 24">
			<path d="M12,1L0,21l24,0L12,1z M12,18c-0.6,0-1-0.4-1-1c0-0.6,0.4-1,1-1s1,0.4,1,1C13,17.6,12.6,18,12,18z M12,15c-0.6,0-1-0.4-1-1
				V9c0-0.6,0.4-1,1-1s1,0.4,1,1v5C13,14.6,12.6,15,12,15z"/>
		</symbol>

		<symbol id="icon-denied" viewBox="0 0 24 24">
			<path d="M12,0C5.4,0,0,5.4,0,12c0,6.6,5.4,12,12,12s12-5.4,12-12C24,5.4,18.6,0,12,0z M21,12c0,1.7-0.5,3.3-1.3,4.7L7.3,4.3
			C8.7,3.5,10.3,3,12,3C17,3,21,7,21,12z M3,12c0-1.7,0.5-3.3,1.3-4.7l12.4,12.4c-1.4,0.8-3,1.3-4.7,1.3C7,21,3,17,3,12z"/>
		</symbol>

		<symbol id="icon-clear" viewBox="0 0 24 24">
			<path d="M9,3l-9,8v1v1v0l0,0l9,8h15v-2V5V3H9z M22,19H10l-7.9-7L10,5h12V19z"/>
			<polygon points="20,8 19,7 15,11 11,7 10,8 14,12 10,16 11,17 15,13 19,17 20,16 16,12 "/>
		</symbol>		

		<symbol id="icon-print" viewBox="0 0 24 24">
			<rect x="8" y="16" width="8" height="1"/>
			<rect x="8" y="18" width="4" height="1"/>
			<path d="M20,8V3V1H4v2v5H1v9h3v6h2h12h2v-6h3V8H20z M6,3h12v5H6V3z M18,17v4H6v-4v-3h12V17z M19,12c-0.6,0-1-0.4-1-1
				c0-0.6,0.4-1,1-1s1,0.4,1,1C20,11.6,19.6,12,19,12z"/>
		</symbol>

		<symbol id="icon-splash" viewBox="0 0 30 30">
			<path d="M15.8,29c0,0,1.1-3,4.1-3s1.9,0.8,4.1,0.8c1.5,0,2.3-2.3,2.3-4.5c0-1.5-1.1-3.4-3.4-3.4C19.9,18.8,15.4,22.9,15.8,29z"/>
			<path d="M12.8,29.7c0,0-2.4-0.8-5.4-8.5c-0.7-2-2.5-2.4-3.3-2.4S0,18.8,0,22.2C0,27.4,9,28.2,12.8,29.7z"/>
			<path d="M8.7,19.9c0,0-1-1.5-0.8-9.9c0-0.4-0.7-1.1-2.2-1.2c-1.1,0-2.6,1-2.7,2.8C3,15,6.6,16.6,8.7,19.9z"/>
			<path d="M15,30.5c0,0-1.1-1.5-1.1-4.5s0.9-5.9,2.3-7.5c1.5-1.9,6.4-4.9,7.9-6.4s3.4-3.4,3.4-6.4c0-2.6-3-5.6-6.4-5.6
				c-4.1,0-6.4,1.5-7.9,3.4S9.8,9.4,9.8,15C9.8,21.8,12.4,28.6,15,30.5z"/>
			<path d="M20.5,17.5c0,0,3.3-2.8,5.3-3.7c1.9-0.9,3.5-0.3,4.1,0.9c0.6,1.2-0.2,2.9-1.3,3.5C26.7,19,24.1,15.9,20.5,17.5z"/>			
		</symbol>

		<symbol id="icon-truck" viewBox="0 0 24 24">
			<rect y="3" width="15" height="9"/>
			<path d="M20,6h-4v7H0v7h2c0-2.2,1.8-4,4-4s4,1.8,4,4h4c0-2.2,1.8-4,4-4s4,1.8,4,4h2v-7v-3L20,6z M22,13h-4V9h2l2,2V13z"/>
			<circle cx="6" cy="20" r="3"/>
			<circle cx="18" cy="20" r="3"/>
		</symbol>

		<symbol id="icon-ribbon" viewBox="0 0 24 24">
			<circle cx="12" cy="8" r="5"/>
			<path d="M17.7,13.7c0.8-0.8,0.5-1.3,0.1-1.7c0-0.1,0.1-0.1,0.1-0.2c0.5,0.2,1.1,0.3,1.5-0.7c0.4-1,0-1.4-0.6-1.6c0-0.1,0-0.2,0-0.2
			C19.4,9.3,20,9.1,20,8c0-1.1-0.6-1.3-1.1-1.2c0-0.1,0-0.2,0-0.2c0.5-0.2,1-0.6,0.6-1.6c-0.4-1-1-1-1.5-0.7c0-0.1-0.1-0.1-0.1-0.2
			c0.4-0.4,0.7-0.9-0.1-1.7c-0.8-0.8-1.3-0.5-1.7-0.1c-0.1,0-0.1-0.1-0.2-0.1C16,1.6,16,1,15.1,0.6c-1-0.4-1.4,0-1.6,0.6
			c-0.1,0-0.2,0-0.2,0C13.3,0.6,13.1,0,12,0c-1.1,0-1.3,0.6-1.2,1.1c-0.1,0-0.2,0-0.2,0c-0.2-0.5-0.6-1-1.6-0.6c-1,0.4-1,1-0.7,1.5
			C8.1,2.2,8.1,2.2,8,2.3C7.7,1.9,7.1,1.6,6.3,2.3C5.6,3.1,5.8,3.7,6.3,4c0,0.1-0.1,0.1-0.1,0.2C5.6,4,5,4,4.6,4.9
			c-0.4,1,0,1.4,0.6,1.6c0,0.1,0,0.2,0,0.2C4.6,6.7,4,6.9,4,8c0,1.1,0.6,1.3,1.1,1.2c0,0.1,0,0.2,0,0.2c-0.5,0.2-1,0.6-0.6,1.6
			c0.4,1,1,1,1.5,0.7c0,0.1,0.1,0.1,0.1,0.2c-0.4,0.4-0.7,0.9,0.1,1.7c0.1,0.1,0.2,0.2,0.3,0.3L4,22l3.5-0.7L10,24l2-6l2,6l2.5-2.7
			L20,22l-2.7-8.1C17.4,13.9,17.5,13.8,17.7,13.7z M6.5,10.3C6.2,9.6,6,8.8,6,8c0-0.8,0.2-1.6,0.5-2.3l0-0.1c0.6-1.4,1.7-2.6,3.2-3.2
			l0.1,0C10.4,2.2,11.2,2,12,2s1.6,0.2,2.3,0.5l0.1,0c1.4,0.6,2.6,1.7,3.2,3.2l0,0.1C17.8,6.4,18,7.2,18,8c0,0.8-0.2,1.6-0.5,2.3
			l0,0.1c-0.6,1.4-1.7,2.6-3.2,3.2l-0.1,0C13.6,13.8,12.8,14,12,14s-1.6-0.2-2.3-0.5l-0.1,0C8.2,12.9,7.1,11.8,6.5,10.3L6.5,10.3z"/>
		</symbol>

		<symbol id="icon-badge" viewBox="0 0 24 24">
			<path d="M21.9,7.8c-0.7-2.1,0-2.8-1.4-4.2C19.1,2.1,18,3,16,2s-2-2-4-2c-2,0-2.1,1.4-4.2,2.1c-2.1,0.7-2.8,0-4.2,1.4
				C2.1,4.9,3,6,2,8s-2,2-2,4c0,2,1.4,2.1,2.1,4.2c0.7,2.1,0,2.8,1.4,4.2C4.9,21.9,6,21,8,22s2,2,4,2c2,0,2.1-1.4,4.2-2.1
				c2.1-0.7,2.8,0,4.2-1.4C21.9,19.1,21,18,22,16s2-2,2-4C24,10,22.6,9.9,21.9,7.8z M12,20c-4.4,0-8-3.6-8-8s3.6-8,8-8s8,3.6,8,8
				S16.4,20,12,20z"/>
			<polygon points="15,8 11,12 9,10 7,12 11,16 17,10 "/>
		</symbol>

		<symbol id="icon-bubbles" viewBox="0 0 30 30">
			<path d="M11.3,7.5c2.1,0,3.7-1.7,3.7-3.7S13.4,0,11.3,0S7.6,1.7,7.6,3.7S9.3,7.5,11.3,7.5z M11.3,1.6c1.2,0,2.2,1,2.2,2.2
				s-1,2.2-2.2,2.2c-1.2,0-2.2-1-2.2-2.2S10.1,1.6,11.3,1.6z"/>
			<path d="M7.1,6.3c0-1.6-1.3-2.9-2.9-2.9S1.4,4.7,1.4,6.3s1.3,2.9,2.9,2.9S7.1,7.9,7.1,6.3z M2.9,6.3C2.9,5.6,3.5,5,4.2,5
				s1.3,0.6,1.3,1.3S5,7.6,4.2,7.6S2.9,7,2.9,6.3z"/>
			<path d="M23.7,13.3c0.1-0.5,0.2-1,0.2-1.5c0-2.9-2.4-5.3-5.3-5.3c-2.3,0-4.3,1.5-5,3.6C12.5,9.1,11,8.6,9.5,8.6
				c-3.7,0-6.7,3-6.7,6.7c0,3.7,3,6.7,6.7,6.7c0.5,0,1-0.1,1.5-0.2c0.3,4.6,4.1,8.3,8.8,8.3c4.9,0,8.8-4,8.8-8.8
				C28.6,17.7,26.6,14.7,23.7,13.3z M18.6,8c2.1,0,3.8,1.7,3.8,3.8c0,0.3,0,0.6-0.1,0.9c-0.8-0.2-1.6-0.3-2.4-0.3
				c-1.4,0-2.8,0.3-4,0.9c-0.2-0.7-0.5-1.3-0.9-1.9C15.1,9.5,16.7,8,18.6,8z M4.4,15.2c0-2.8,2.3-5.1,5.1-5.1s5.1,2.3,5.1,5.1
				c0,2.8-2.3,5.1-5.1,5.1S4.4,18.1,4.4,15.2z M19.8,28.4c-4,0-7.3-3.3-7.3-7.3c0,0,0,0,0,0c2.1-1.1,3.6-3.3,3.6-5.9
				c0-0.1,0-0.2,0-0.3c1.1-0.6,2.3-1,3.7-1c4,0,7.3,3.3,7.3,7.3S23.8,28.4,19.8,28.4z"/>
			<path d="M25.3,22.3c-0.3,0-0.6-0.3-0.6-0.6c0-2.7-2-4.6-3.9-5c-0.3-0.1-0.6-0.4-0.5-0.7c0.1-0.3,0.4-0.6,0.7-0.5
				c2.4,0.5,4.9,2.8,4.9,6.2C25.9,22,25.7,22.3,25.3,22.3z"/>
			<path d="M13,16c-0.3,0-0.5-0.2-0.5-0.5c0-2-1.2-3.3-3-3.5c-0.3,0-0.4-0.3-0.4-0.5c0-0.3,0.3-0.4,0.5-0.4c2.3,0.2,3.9,2,3.9,4.4
				C13.5,15.8,13.3,16,13,16z"/>
			<path d="M21,11.8c-0.2,0-0.4-0.2-0.4-0.4c-0.1-0.8-1-1.6-1.6-1.6c-0.2,0-0.4-0.2-0.3-0.4C18.8,9.1,19,9,19.2,9
				c0.9,0.1,2.1,1.2,2.2,2.3C21.4,11.6,21.3,11.8,21,11.8C21,11.8,21,11.8,21,11.8z"/>
		</symbol>

		<symbol id="icon-measuring" viewBox="0 0 24 24">
			<path d="M21,9l-6-6l1.5-1.5c0.7-0.7,2.3-0.7,3,0l3,3c0.7,0.7,0.7,2.3,0,3L21,9z"/>
			<polygon points="18.5,11.5 20,10 14,4 12.5,5.5 "/>
			<path d="M5.5,12.5L1,17v6h6l4.5-4.5L5.5,12.5z M6,21H5v-2H3v-1l1-1l3,3L6,21z"/>
			<circle cx="5" cy="5" r="1"/>
			<path d="M5,0L0,5l19,19l5-5L5,0z M18,21l2-2l-1-1l-2,2c-0.3-0.3-0.6-0.6-1-1l1-1l-1-1l-1,1c-0.3-0.3-0.7-0.7-1-1l2-2l-1-1l-2,2
				c-0.3-0.3-0.7-0.7-1-1l1-1l-1-1l-1,1c-0.3-0.3-0.7-0.7-1-1l2-2l-1-1l-2,2c-0.3-0.3-0.7-0.7-1-1l1-1L8,9l-1,1C6.7,9.7,6.3,9.3,6,9
				l2-2L7,6L5,8C3.5,6.5,2.4,5.4,2,5l3-3c1.7,1.7,15.3,15.3,17,17l-3,3C18.8,21.8,18.5,21.5,18,21z"/>	
		</symbol>

		<symbol id="icon-clipboardCheck" viewBox="0 0 24 24">
			<path d="M16,3V1.9C16,1.4,15.6,1,15.1,1H8.9C8.4,1,8,1.4,8,1.9V3H3v20h18V3H16z M14,3v2h-4V3H14z M19,21H5V5h3v1.1
			C8,6.6,8.4,7,8.9,7h6.1C15.6,7,16,6.6,16,6.1V5h3V21z"/>
			<polygon points="15,9 11,13 9,11 7,13 11,17 17,11 "/>
		</symbol>

		<symbol id="icon-clipboardGrid" viewBox="0 0 24 24">
			<path d="M16,3V1.9C16,1.4,15.6,1,15.1,1H8.9C8.4,1,8,1.4,8,1.9V3H3v20h18V3H16z M14,3v2h-4V3H14z M19,21H5V5h3v1.1
				C8,6.6,8.4,7,8.9,7h6.1C15.6,7,16,6.6,16,6.1V5h3V21z"/>
			<rect x="7" y="9" width="2" height="2"/>
			<rect x="11" y="9" width="6" height="2"/>
			<rect x="7" y="13" width="2" height="2"/>
			<rect x="11" y="13" width="6" height="2"/>
			<rect x="7" y="17" width="2" height="2"/>
			<rect x="11" y="17" width="6" height="2"/>		
		</symbol>

		<symbol id="icon-star" viewBox="0 0 24 24">
			<polygon points="12,0 15.7,7.5 24,8.5 18,14.5 19.5,23 12,19 4.5,23 6,14.5 0,8.5 8.3,7.5 "/>
		</symbol>

		<symbol id="icon-rankings" viewBox="0 0 24 24">
			<polygon points="12,0 13.1,2.3 15.7,2.6 13.8,4.4 14.3,7 12,5.8 9.7,7 10.2,4.4 8.3,2.6 10.9,2.3 "/>
			<polygon points="4,4 5.1,6.3 7.7,6.6 5.8,8.4 6.3,11 4,9.8 1.7,11 2.2,8.4 0.3,6.6 2.9,6.3 "/>
			<polygon points="20,7 21.1,9.3 23.7,9.6 21.8,11.4 22.3,14 20,12.8 17.7,14 18.2,11.4 16.3,9.6 18.9,9.3 "/>
			<rect x="9" y="8" width="6" height="15"/>
			<rect x="17" y="15" width="6" height="8"/>
			<rect x="1" y="12" width="6" height="11"/>	
		</symbol>

		<symbol id="icon-calendarEx" viewBox="0 0 24 24">
			<path d="M20,3V1h-6v2h-4V1H4v2H1v20h22V3H20z M21,21H3V10h18V21z"/>
			<polygon points="16.5,13 14.5,11 12,13.5 9.5,11 7.5,13 10,15.5 7.5,18 9.5,20 12,17.5 14.5,20 16.5,18 14,15.5 "/>
		</symbol>

		<symbol id="icon-mapPin" viewBox="0 0 24 24">
			<path d="M12,1C8.7,1,6,3.7,6,7c0,4,6,12,6,12s6-8,6-12C18,3.7,15.3,1,12,1z M12,10c-1.7,0-3-1.3-3-3s1.3-3,3-3s3,1.3,3,3
			S13.7,10,12,10z"/>
			<path d="M20,15h-4c-0.2,0.3-0.4,0.7-0.6,1h4l2.1,5H2.4l2.1-5h4c-0.2-0.3-0.4-0.7-0.6-1H4l-3,7h22L20,15z"/>
		</symbol>

		<symbol id="icon-clipboard" viewBox="0 0 24 24">
			<path d="M16,3V1.9C16,1.4,15.6,1,15.1,1H8.9C8.4,1,8,1.4,8,1.9V3H3v20h18V3H16z M14,3v2h-4V3H14z M19,21H5V5h3v1.1
			C8,6.6,8.4,7,8.9,7h6.1C15.6,7,16,6.6,16,6.1V5h3V21z"/>
		</symbol>

		<symbol id="icon-essay" viewBox="0 0 24 24">
			<path d="M22,20l-1.5,2L19,20V5h3V20z"/>
			<rect x="19" y="2" width="3" height="2"/>
			<polygon points="17,6 12,1 12,6"/>
			<path d="M11,7V6V1H2v22h15V7H11z M14,18H5v-2h9V18z M14,14H5v-2h9V14z"/>
		</symbol>


		<symbol id="icon-payment-alert" viewBox="0 0 24 24">
			<path d="M23.4,18.5c-0.3-0.6-6.5-11-6.5-11s-0.4-0.8-1.3-0.8s-1.3,0.8-1.3,0.8s-1.6,2.7-3.2,5.5c-0.2-0.3-0.4-0.6-0.7-0.9
				c-0.4-0.4-0.8-0.7-1.3-0.9s-1-0.5-1.5-0.7s-1-0.4-1.5-0.5c-0.2-0.2-0.6-0.3-1-0.6C4.7,9.2,4.4,9,4.2,8.7C4,8.4,3.9,8.1,3.9,7.6
				c0-0.3,0-0.5,0.1-0.7s0.3-0.4,0.5-0.6C4.7,6.1,5,6,5.3,5.9S6,5.8,6.5,5.8s1,0.1,1.4,0.2S8.7,6.2,9,6.3c0.3,0.1,0.6,0.3,0.8,0.4
				s0.4,0.2,0.5,0.2s0.1,0,0.2,0s0.1-0.1,0.1-0.2s0.1-0.2,0.1-0.4c0-0.2,0-0.4,0-0.7c0-0.2,0-0.4,0-0.5s0-0.3,0-0.4s-0.1-0.2-0.1-0.3
				c0-0.1-0.1-0.2-0.2-0.2c0-0.2-0.2-0.3-0.4-0.4C9.8,3.7,9.6,3.6,9.4,3.6C9.1,3.5,8.9,3.4,8.6,3.3C8.3,3.3,8,3.2,7.8,3.2L8,0.6
				c0-0.1,0-0.2,0-0.3S7.9,0.2,7.8,0.1c-0.1,0-0.2,0-0.4-0.1C7.2,0,7,0,6.7,0C6.5,0,6.3,0,6.1,0C6,0,5.9,0.1,5.8,0.1S5.6,0.2,5.6,0.3
				s0,0.1-0.1,0.1L5.3,3.2c-0.8,0-1.5,0.2-2.1,0.5C2.5,3.9,2,4.3,1.6,4.7s-0.7,0.9-1,1.5C0.4,6.7,0.3,7.3,0.3,8s0.1,1.4,0.3,1.9
				s0.5,1,0.9,1.3c0.4,0.4,0.8,0.7,1.3,0.9c0.5,0.3,0.9,0.5,1.4,0.7s1,0.4,1.4,0.5s0.9,0.4,1.3,0.6c0.4,0.2,0.7,0.5,0.9,0.7
				C8,15,8.1,15.3,8.1,15.8c0,0.7-0.3,1.2-0.8,1.6C6.8,17.7,6,17.9,5,17.9c-0.7,0-1.3-0.1-1.8-0.2s-0.9-0.3-1.3-0.4
				C1.6,17.1,1.3,17,1,16.8c-0.2-0.1-0.4-0.2-0.5-0.2s-0.2,0-0.2,0.1s-0.1,0.1-0.2,0.2S0,17.2,0,17.4c0,0.2,0,0.5,0,0.8
				c0,0.4,0,0.7,0.1,0.9c0,0.2,0.1,0.4,0.2,0.5s0.3,0.2,0.5,0.3c0.2,0,0.4,0.1,0.7,0.2s0.6,0.2,0.9,0.3c0.3,0.1,0.7,0.2,1.1,0.2
				l-0.3,2.8c0,0.1,0,0.2,0,0.3s0.1,0.1,0.2,0.2c0.1,0,0.2,0.1,0.4,0.1c0.2,0,0.4,0,0.7,0c0.2,0,0.4,0,0.6,0c0.1,0,0.3-0.1,0.4-0.1
				s0.1-0.1,0.2-0.1s0.1-0.1,0.1-0.2L6,20.7c0.5,0,0.9-0.1,1.4-0.2c0.2,0.6,0.8,0.9,1.4,0.9c0.8,0,6.9,0,6.9,0s6.2,0,6.9,0
				c0.7,0,1.5-0.4,1.5-1.3C24,19.5,23.8,19.1,23.4,18.5z M21.5,19.9h-5.8H9.8c-0.2,0-0.4-0.1-0.5-0.3l0,0l-0.1-0.1c0-0.1,0-0.1,0-0.2
				c0-0.2,0.1-0.4,0.3-0.8c0.1-0.2,0.3-0.4,0.4-0.7c0,0,0-0.1,0.1-0.1c0.2-0.3,0.3-0.5,0.5-0.8c0,0,0-0.1,0.1-0.1
				c0.4-0.6,0.8-1.3,1.2-2l0,0l0,0c1.2-2.1,2.5-4.3,3.2-5.6c0.2-0.2,0.3-0.4,0.7-0.4c0.3,0,0.5,0.2,0.7,0.5c1.3,2.2,4.2,7.1,5.4,9.4
				c0.2,0.3,0.3,0.6,0.3,0.8C22.1,19.7,21.8,19.9,21.5,19.9z"/>
			<path d="M15.7,11c-0.6,0-1,0.5-1,1.3V15c0,0.7,0.5,1.3,1,1.3c0.6,0,1-0.5,1-1.3v-2.8C16.7,11.5,16.2,11,15.7,11z"/>
			<path d="M15.7,16.9c-0.6,0-1,0.5-1,1c0,0.6,0.5,1,1,1c0.6,0,1-0.5,1-1S16.2,16.9,15.7,16.9z"/>			
		</symbol>

		<symbol id="icon-payment-check" viewBox="0 0 24 24">
			<path d="M16.5,7c-3.1,0-5.7,1.8-6.8,4.4c-0.1-0.1-0.2-0.2-0.4-0.2c-0.5-0.2-1-0.5-1.5-0.7s-1-0.4-1.5-0.5C5.9,9.8,5.5,9.7,5.1,9.4
			C4.7,9.2,4.4,9,4.2,8.7C4,8.4,3.9,8.1,3.9,7.6c0-0.3,0-0.5,0.1-0.7s0.3-0.4,0.5-0.6C4.7,6.1,5,6,5.3,5.9S6,5.8,6.5,5.8
			s1,0.1,1.4,0.2S8.7,6.2,9,6.3c0.3,0.1,0.6,0.3,0.8,0.4s0.4,0.2,0.5,0.2s0.1,0,0.2,0s0.1-0.1,0.1-0.2s0.1-0.2,0.1-0.4
			c0-0.2,0-0.4,0-0.7c0-0.2,0-0.4,0-0.5s0-0.3,0-0.4s-0.1-0.2-0.1-0.3c0-0.1-0.1-0.2-0.2-0.2c0-0.2-0.2-0.3-0.4-0.4
			C9.8,3.7,9.6,3.6,9.4,3.6C9.1,3.5,8.9,3.4,8.6,3.3C8.3,3.3,8,3.2,7.8,3.2L8,0.6c0-0.1,0-0.2,0-0.3S7.9,0.2,7.8,0.1
			c-0.1,0-0.2,0-0.4-0.1C7.2,0,7,0,6.7,0C6.5,0,6.3,0,6.1,0C6,0,5.9,0.1,5.8,0.1S5.6,0.2,5.6,0.3s0,0.1-0.1,0.1L5.3,3.2
			c-0.8,0-1.5,0.2-2.1,0.5C2.5,3.9,2,4.3,1.6,4.7s-0.7,0.9-1,1.5C0.4,6.7,0.3,7.3,0.3,8s0.1,1.4,0.3,1.9s0.5,1,0.9,1.3
			c0.4,0.4,0.8,0.7,1.3,0.9c0.5,0.3,0.9,0.5,1.4,0.7s1,0.4,1.4,0.5s0.9,0.4,1.3,0.6c0.4,0.2,0.7,0.5,0.9,0.7C8,15,8.1,15.3,8.1,15.8
			c0,0.7-0.3,1.2-0.8,1.6C6.8,17.7,6,17.9,5,17.9c-0.7,0-1.3-0.1-1.8-0.2s-0.9-0.3-1.3-0.4C1.6,17.1,1.3,17,1,16.8
			c-0.2-0.1-0.4-0.2-0.5-0.2s-0.2,0-0.2,0.1s-0.1,0.1-0.2,0.2S0,17.2,0,17.4c0,0.2,0,0.5,0,0.8c0,0.4,0,0.7,0.1,0.9
			c0,0.2,0.1,0.4,0.2,0.5s0.3,0.2,0.5,0.3c0.2,0,0.4,0.1,0.7,0.2s0.6,0.2,0.9,0.3c0.3,0.1,0.7,0.2,1.1,0.2l-0.3,2.8c0,0.1,0,0.2,0,0.3
			s0.1,0.1,0.2,0.2c0.1,0,0.2,0.1,0.4,0.1c0.2,0,0.4,0,0.7,0c0.2,0,0.4,0,0.6,0c0.1,0,0.3-0.1,0.4-0.1s0.1-0.1,0.2-0.1
			s0.1-0.1,0.1-0.2L6,20.7c0.9-0.1,1.7-0.2,2.4-0.5s1.3-0.6,1.8-1.1c0.1-0.1,0.1-0.1,0.2-0.2c1.4,1.9,3.6,3.2,6.1,3.2
			c4.1,0,7.5-3.4,7.5-7.5S20.6,7,16.5,7z M15.7,18.2L12,15.6l1-1.5l2.3,1.6l4.2-6l1.5,1L15.7,18.2z"/>
		</symbol>

		<symbol id="icon-payment-ellipses" viewBox="0 0 24 24">
			<path d="M16.5,7c-3.1,0-5.7,1.8-6.8,4.4c-0.1-0.1-0.2-0.2-0.4-0.2c-0.5-0.2-1-0.5-1.5-0.7s-1-0.4-1.5-0.5C5.9,9.8,5.5,9.7,5.1,9.4
				C4.7,9.2,4.4,9,4.2,8.7C4,8.4,3.9,8.1,3.9,7.6c0-0.3,0-0.5,0.1-0.7s0.3-0.4,0.5-0.6C4.7,6.1,5,6,5.3,5.9S6,5.8,6.5,5.8
				s1,0.1,1.4,0.2S8.7,6.2,9,6.3c0.3,0.1,0.6,0.3,0.8,0.4s0.4,0.2,0.5,0.2s0.1,0,0.2,0s0.1-0.1,0.1-0.2s0.1-0.2,0.1-0.4
				c0-0.2,0-0.4,0-0.7c0-0.2,0-0.4,0-0.5s0-0.3,0-0.4s-0.1-0.2-0.1-0.3c0-0.1-0.1-0.2-0.2-0.2c0-0.2-0.2-0.3-0.4-0.4
				C9.8,3.7,9.6,3.6,9.4,3.6C9.1,3.5,8.9,3.4,8.6,3.3C8.3,3.3,8,3.2,7.8,3.2L8,0.6c0-0.1,0-0.2,0-0.3S7.9,0.2,7.8,0.1
				c-0.1,0-0.2,0-0.4-0.1C7.2,0,7,0,6.7,0C6.5,0,6.3,0,6.1,0C6,0,5.9,0.1,5.8,0.1S5.6,0.2,5.6,0.3s0,0.1-0.1,0.1L5.3,3.2
				c-0.8,0-1.5,0.2-2.1,0.5C2.5,3.9,2,4.3,1.6,4.7s-0.7,0.9-1,1.5C0.4,6.7,0.3,7.3,0.3,8s0.1,1.4,0.3,1.9s0.5,1,0.9,1.3
				c0.4,0.4,0.8,0.7,1.3,0.9c0.5,0.3,0.9,0.5,1.4,0.7s1,0.4,1.4,0.5s0.9,0.4,1.3,0.6c0.4,0.2,0.7,0.5,0.9,0.7C8,15,8.1,15.3,8.1,15.8
				c0,0.7-0.3,1.2-0.8,1.6C6.8,17.7,6,17.9,5,17.9c-0.7,0-1.3-0.1-1.8-0.2s-0.9-0.3-1.3-0.4C1.6,17.1,1.3,17,1,16.8
				c-0.2-0.1-0.4-0.2-0.5-0.2s-0.2,0-0.2,0.1s-0.1,0.1-0.2,0.2S0,17.2,0,17.4c0,0.2,0,0.5,0,0.8c0,0.4,0,0.7,0.1,0.9
				c0,0.2,0.1,0.4,0.2,0.5s0.3,0.2,0.5,0.3c0.2,0,0.4,0.1,0.7,0.2s0.6,0.2,0.9,0.3c0.3,0.1,0.7,0.2,1.1,0.2l-0.3,2.8
				c0,0.1,0,0.2,0,0.3s0.1,0.1,0.2,0.2c0.1,0,0.2,0.1,0.4,0.1c0.2,0,0.4,0,0.7,0c0.2,0,0.4,0,0.6,0c0.1,0,0.3-0.1,0.4-0.1
				s0.1-0.1,0.2-0.1s0.1-0.1,0.1-0.2L6,20.7c0.9-0.1,1.7-0.2,2.4-0.5s1.3-0.6,1.8-1.1c0.1-0.1,0.1-0.1,0.2-0.2
				c1.4,1.9,3.6,3.2,6.1,3.2c4.1,0,7.5-3.4,7.5-7.5C24,10.4,20.6,7,16.5,7z M16.5,20.3c-3.2,0-5.8-2.6-5.8-5.8s2.6-5.8,5.8-5.8
				s5.8,2.6,5.8,5.8S19.7,20.3,16.5,20.3z"/>
			<circle cx="13" cy="14.5" r="1"/>
			<circle cx="16.5" cy="14.5" r="1"/>
			<circle cx="20" cy="14.5" r="1"/>			
		</symbol>

		<symbol id="icon-payment-clock" viewBox="0 0 24 24">
			<path d="M19.7,14.4h-3.2v-3.2c0-0.5-0.4-0.9-0.9-0.9c-0.5,0-0.9,0.4-0.9,0.9v4.2c0,0.5,0.4,0.9,0.9,0.9h4.1c0.5,0,0.9-0.4,0.9-0.9
				C20.6,14.9,20.2,14.4,19.7,14.4z"/>
			<path d="M16.5,7c-3.1,0-5.7,1.8-6.8,4.4c-0.1-0.1-0.2-0.2-0.4-0.2c-0.5-0.2-1-0.5-1.5-0.7c-0.5-0.2-1-0.4-1.5-0.5
				C5.9,9.8,5.5,9.7,5.1,9.4C4.7,9.2,4.4,9,4.2,8.7C4,8.4,3.9,8.1,3.9,7.6c0-0.3,0-0.5,0.1-0.7c0.1-0.2,0.3-0.4,0.5-0.6
				C4.7,6.1,5,6,5.3,5.9S6,5.8,6.5,5.8c0.5,0,1,0.1,1.4,0.2S8.7,6.2,9,6.3c0.3,0.1,0.6,0.3,0.8,0.4c0.2,0.1,0.4,0.2,0.5,0.2
				c0.1,0,0.1,0,0.2,0s0.1-0.1,0.1-0.2s0.1-0.2,0.1-0.4c0-0.2,0-0.4,0-0.7c0-0.2,0-0.4,0-0.5s0-0.3,0-0.4s-0.1-0.2-0.1-0.3
				c0-0.1-0.1-0.2-0.2-0.2C10.4,4,10.2,3.9,10,3.8C9.8,3.7,9.6,3.6,9.4,3.6C9.1,3.5,8.9,3.4,8.6,3.3C8.3,3.3,8,3.2,7.8,3.2L8,0.6
				c0-0.1,0-0.2,0-0.3c0-0.1-0.1-0.1-0.2-0.2C7.7,0.1,7.6,0.1,7.4,0C7.2,0,7,0,6.7,0C6.5,0,6.3,0,6.1,0C6,0,5.9,0.1,5.8,0.1
				S5.6,0.2,5.6,0.3S5.6,0.4,5.5,0.4L5.3,3.2C4.5,3.2,3.8,3.4,3.2,3.7C2.5,3.9,2,4.3,1.6,4.7s-0.7,0.9-1,1.5C0.4,6.7,0.3,7.3,0.3,8
				c0,0.7,0.1,1.4,0.3,1.9c0.2,0.5,0.5,1,0.9,1.3c0.4,0.4,0.8,0.7,1.3,0.9c0.5,0.3,0.9,0.5,1.4,0.7c0.5,0.2,1,0.4,1.4,0.5
				s0.9,0.4,1.3,0.6c0.4,0.2,0.7,0.5,0.9,0.7C8,15,8.1,15.3,8.1,15.8c0,0.7-0.3,1.2-0.8,1.6C6.8,17.7,6,17.9,5,17.9
				c-0.7,0-1.3-0.1-1.8-0.2c-0.5-0.1-0.9-0.3-1.3-0.4C1.6,17.1,1.3,17,1,16.8c-0.2-0.1-0.4-0.2-0.5-0.2c-0.1,0-0.2,0-0.2,0.1
				s-0.1,0.1-0.2,0.2S0,17.2,0,17.4c0,0.2,0,0.5,0,0.8c0,0.4,0,0.7,0.1,0.9c0,0.2,0.1,0.4,0.2,0.5c0.1,0.1,0.3,0.2,0.5,0.3
				C1,19.9,1.2,20,1.5,20.1c0.3,0.1,0.6,0.2,0.9,0.3c0.3,0.1,0.7,0.2,1.1,0.2l-0.3,2.8c0,0.1,0,0.2,0,0.3s0.1,0.1,0.2,0.2
				c0.1,0,0.2,0.1,0.4,0.1c0.2,0,0.4,0,0.7,0c0.2,0,0.4,0,0.6,0c0.1,0,0.3-0.1,0.4-0.1c0.1,0,0.1-0.1,0.2-0.1s0.1-0.1,0.1-0.2L6,20.7
				c0.9-0.1,1.7-0.2,2.4-0.5c0.7-0.3,1.3-0.6,1.8-1.1c0.1-0.1,0.1-0.1,0.2-0.2c1.4,1.9,3.6,3.2,6.1,3.2c4.1,0,7.5-3.4,7.5-7.5
				C24,10.4,20.6,7,16.5,7z M16.5,20.3c-3.2,0-5.8-2.6-5.8-5.8c0-3.2,2.6-5.8,5.8-5.8c3.2,0,5.8,2.6,5.8,5.8
				C22.3,17.7,19.7,20.3,16.5,20.3z"/>			
		</symbol>

		<symbol id="icon-dollar-sign" viewBox="0 0 24 24">
			<path d="M17.9,15.3c0,0.8-0.1,1.5-0.4,2.1s-0.7,1.2-1.2,1.6c-0.5,0.5-1.1,0.8-1.8,1.1c-0.7,0.3-1.5,0.4-2.4,0.5l-0.3,2.9
				c0,0.1,0,0.1-0.1,0.2c0,0.1-0.1,0.1-0.2,0.1c-0.1,0-0.2,0.1-0.4,0.1c-0.1,0-0.3,0-0.6,0c-0.3,0-0.5,0-0.7,0c-0.2,0-0.3-0.1-0.4-0.1
				c-0.1,0-0.2-0.1-0.2-0.2c0-0.1,0-0.2,0-0.3l0.3-2.8c-0.4-0.1-0.8-0.1-1.1-0.2c-0.3-0.1-0.7-0.2-0.9-0.3c-0.3-0.1-0.5-0.2-0.7-0.3
				c-0.2-0.1-0.4-0.2-0.5-0.3c-0.1-0.1-0.2-0.3-0.2-0.5c0-0.2-0.1-0.5-0.1-0.9c0-0.3,0-0.6,0-0.8s0-0.4,0.1-0.5s0.1-0.2,0.2-0.2
				c0.1,0,0.1-0.1,0.2-0.1c0.1,0,0.3,0.1,0.5,0.2s0.5,0.3,0.9,0.4c0.4,0.2,0.8,0.3,1.3,0.4c0.5,0.1,1.1,0.2,1.8,0.2
				c1.1,0,1.8-0.2,2.4-0.6c0.5-0.4,0.8-0.9,0.8-1.6c0-0.4-0.1-0.8-0.3-1.1c-0.2-0.3-0.5-0.5-0.9-0.7c-0.4-0.2-0.8-0.4-1.3-0.6
				s-0.9-0.3-1.4-0.5s-1-0.4-1.4-0.7c-0.5-0.3-0.9-0.6-1.3-0.9c-0.4-0.4-0.7-0.8-0.9-1.3C6.5,9.4,6.4,8.7,6.4,8c0-0.7,0.1-1.3,0.3-1.8
				s0.6-1,1-1.5c0.4-0.4,0.9-0.8,1.6-1s1.3-0.4,2.1-0.5l0.3-2.7c0-0.1,0-0.1,0.1-0.2s0.1-0.1,0.2-0.1C12,0.1,12.1,0,12.2,0s0.3,0,0.6,0
				c0.3,0,0.5,0,0.7,0c0.2,0,0.3,0.1,0.4,0.1s0.2,0.1,0.2,0.2s0,0.2,0,0.3l-0.3,2.6c0.3,0,0.5,0.1,0.8,0.1c0.3,0.1,0.5,0.1,0.8,0.2
				c0.2,0.1,0.5,0.2,0.7,0.3s0.3,0.2,0.4,0.3c0.1,0.1,0.1,0.2,0.2,0.2c0,0.1,0.1,0.2,0.1,0.3c0,0.1,0,0.2,0,0.4c0,0.2,0,0.3,0,0.5
				c0,0.3,0,0.5,0,0.7s0,0.3-0.1,0.4c0,0.1-0.1,0.2-0.1,0.2s-0.1,0-0.2,0c-0.1,0-0.3-0.1-0.5-0.2s-0.5-0.2-0.8-0.4
				C14.8,6.2,14.4,6.1,14,6s-0.9-0.2-1.4-0.2c-0.5,0-0.9,0-1.2,0.1s-0.6,0.2-0.8,0.4s-0.4,0.4-0.5,0.6C10,7.1,10,7.4,10,7.6
				c0,0.4,0.1,0.8,0.3,1.1c0.2,0.3,0.5,0.5,0.9,0.7S12,9.8,12.5,10c0.5,0.2,1,0.4,1.5,0.5s1,0.4,1.5,0.7s0.9,0.6,1.3,0.9
				c0.4,0.4,0.7,0.8,0.9,1.3C17.8,14,17.9,14.6,17.9,15.3z"/>			
		</symbol>

		<symbol id="icon-arrow-box" viewBox="0 0 24 24">
			<path d="M18,14v4H6V6h4L6,2H2v20h20v-4L18,14z"/>
			<path d="M22,2H10l4,4l-6,6l4,4l6-6l4,4V2z"/>
		</symbol>

		<symbol id="icon-medal" viewBox="0 0 24 24">
			<path d="M12.4,12.9l0.8,1.6c0.1,0.1,0.2,0.2,0.3,0.2l1.8,0.3c0.4,0.1,0.5,0.5,0.2,0.7l-1.3,1.3c-0.1,0.1-0.2,0.2-0.1,0.4l0.3,1.8
				c0.1,0.4-0.3,0.6-0.6,0.5l-1.6-0.9c-0.1-0.1-0.3-0.1-0.4,0l-1.6,0.9c-0.3,0.2-0.7-0.1-0.6-0.5l0.3-1.8c0-0.1,0-0.3-0.1-0.4l-1.3-1.3
				c-0.3-0.3-0.1-0.7,0.2-0.7l1.8-0.3c0.1,0,0.3-0.1,0.3-0.2l0.8-1.6C11.8,12.6,12.2,12.6,12.4,12.9z"/>
			<path d="M19,1v3.8l-6.9,5.3c0,0,0,0-0.1,0c0,0-0.1,0-0.1,0L5,4.8V1H3v4v0.8l6.4,4.9c-2.2,1-3.8,3.3-3.8,5.9c0,3.6,2.9,6.4,6.4,6.4
				s6.4-2.9,6.4-6.4c0-2.6-1.6-4.9-3.8-5.9L21,5.8V5V1H19z M17.1,16.6c0,2.8-2.3,5.1-5.1,5.1s-5.1-2.3-5.1-5.1c0-2.8,2.3-5.1,5.1-5.1
				S17.1,13.7,17.1,16.6z"/>
			<polygon points="12,1 7,1 7,3.8 12,7.5 17,3.8 17,1 "/>			
		</symbol>

		<symbol id="icon-trophy" viewBox="0 0 24 24">
			<path d="M21.3,4H18V3.5C18,2.7,17.3,2,16.5,2h-9C6.7,2,6,2.7,6,3.5V4H2.7C2.3,4,2,4.3,2,4.6v2.1c0,0,0,0,0,0c0,1.8,2.5,4.1,5.1,4.4
			c0.6,1.4,1.4,2.7,2.5,3.7c0.1,0.1,0.3,0.2,0.4,0.3V19H7.7C6.8,19,6,19.8,6,20.7v0.8C6,21.8,6.2,22,6.5,22h11c0.3,0,0.5-0.2,0.5-0.5
			v-0.8c0-0.9-0.8-1.7-1.7-1.7H14v-3.9c0.1-0.1,0.3-0.2,0.4-0.3c1.1-1,1.9-2.3,2.5-3.7c2.6-0.2,5.1-2.5,5.1-4.4c0,0,0,0,0,0V4.6
			C22,4.3,21.7,4,21.3,4z M4,6.7L4,6.7V6h2v0C6,7,6.1,8,6.4,9C5.4,8.7,4,7.5,4,6.7z M20,6.7L20,6.7c0,0.8-1.4,1.9-2.4,2.2
			C17.9,8,18,7,18,6v0h2V6.7z"/>
		</symbol>

		<symbol id="icon-dogtags" viewBox="0 0 24 24">
			<path d="M7.2,9.9C6,7.1,6.9,4,9.1,2.2C7.2,2.4,5.4,3.7,4.7,5.7L1.5,15c-0.9,2.7,0.5,5.8,3.3,6.7c2.5,0.8,5.1-0.3,6.3-2.5L7.2,9.9z"
			/>
			<path d="M22.5,14.6l-3.7-9.2c-1.1-2.7-4.2-4-6.9-2.9S8,6.7,9.1,9.4l3.7,9.2c1.1,2.7,4.2,4,6.9,2.9C22.3,20.4,23.6,17.3,22.5,14.6z
			M14.3,7c-0.6,0.5-1.6,0.5-2.1-0.2c-0.5-0.6-0.5-1.6,0.2-2.1c0.6-0.5,1.6-0.5,2.1,0.2C15,5.5,14.9,6.4,14.3,7z"/>			
		</symbol>

		<symbol id="icon-copy" viewBox="0 0 24 24">
			<path d="M7,3v14h14V3H7z M19,15H9V5h10V15z"/>
			<polygon points="15,18 15,19 5,19 5,9 6,9 6,7 3,7 3,21 17,21 17,18 "/>
		</symbol>

		<symbol id="icon-moneybag" viewBox="0 0 24 24">
			<path d="M7,2v1c0,1,2,0,2,2h6c0-2,2-1,2-2V2H7z"/>
			<path d="M15,6H9c0,2-6,5-6,10s3,7,9,7s9-2,9-7S15,8,15,6z M14.5,12h-4v2h4v4h-2v1h-1v-1h-2v-1h4v-2h-4v-4h2v-1h1v1h2V12z"/>
		</symbol>

		<symbol id="icon-mask" viewBox="0 0 24 24">
			<path d="M17.9,5.2c-2.2,0-4.3,0.6-5.9,1.8c-1.5-1.3-3.7-1.8-5.9-1.8C3.8,5.2,1.5,5.8,0,7C0,7,0,7.5,0,9.7c0,3.1,2,7,6,7
	c2,0,5-0.7,6-1.8c1,1.1,4,1.8,6,1.8c4,0,6-3.9,6-7C24,7.5,24,7,24,7C22.5,5.8,20.2,5.2,17.9,5.2z M19,9v1c0,1.3-1.1,3-3,3s-2-2-1-3
	C15.8,9.2,17.7,9,19,9z M5,9c1.3,0,3.2,0.2,4,1c1,1,0.9,3-1,3s-3-1.7-3-3V9z"/>
		</symbol>

		<symbol id="icon-credit" viewBox="0 0 24 24">
			<rect x="3" y="15" width="7" height="1"/>
			<path d="M1,5v14h22V5H1z M2,18v-7h20v7H2z M22,8H2V6h20V8z"/>			
		</symbol>

		<symbol id="icon-credit-denied" viewBox="0 0 24 24">
			<rect x="3" y="15" width="7" height="1"/>
			<path d="M12,18H2v-7h20v2.5c0.4,0.3,0.7,0.7,1,1.1V5H1v14h11.1C12,18.7,12,18.3,12,18z M2,6h20v2H2V6z"/>
			<path d="M18,13.2c-2.6,0-4.8,2.2-4.8,4.8s2.2,4.8,4.8,4.8s4.8-2.2,4.8-4.8S20.6,13.2,18,13.2z M14.4,17.9
				c0-0.9,0.3-1.7,0.9-2.3l4,5.6c-0.3,0.2-0.8,0.3-1.3,0.3C16,21.5,14.4,19.9,14.4,17.9z M20.5,20.4l-4.1-5.7c0.5-0.2,1-0.4,1.6-0.4
				c2,0,3.6,1.6,3.6,3.6C21.6,18.9,21.1,19.8,20.5,20.4z"/>			
		</symbol>

		<symbol id="icon-credit-approved" viewBox="0 0 24 24">
			<polygon points="20,13 15,18 13,16 11,18 15,22 22,15"/>
			<rect x="3" y="15" width="7" height="1"/>
			<polygon points="22,18 20,18 19,19 23,19 23,15 22,16"/>
			<path d="M1,5v14h10l-1-1H2v-7h20v3l1,1V5H1z M22,8H2V6h20V8z"/>			
		</symbol>

		<symbol id="icon-alert-shield" viewBox="0 0 24 24">
			<path d="M3,4c0,0,0,11,0,12c0,3,9,7,9,7s9-4,9-7c0-2,0-12,0-12C16,1,8,1,3,4z M12,18c-0.6,0-1-0.4-1-1s0.4-1,1-1s1,0.4,1,1
	S12.6,18,12,18z M13,13c0,0.6-0.4,1-1,1s-1-0.4-1-1V7c0-0.6,0.4-1,1-1s1,0.4,1,1V13z"/>			
		</symbol>

	</defs>
</svg>